<svg xmlns="http://www.w3.org/2000/svg" viewBox="0 0 227.9 282.28"><defs><style>.cls-1{fill:#c6531c;}.cls-2{fill:#f57435;}.cls-14,.cls-3{fill:#fff;}.cls-4{fill:#101010;}.cls-10,.cls-5{fill:#650b15;}.cls-13,.cls-6,.cls-7,.cls-9{fill:none;}.cls-10,.cls-13,.cls-14,.cls-6,.cls-7,.cls-8,.cls-9{stroke:#231f20;stroke-miterlimit:10;}.cls-6,.cls-7,.cls-8{stroke-width:3px;}.cls-13,.cls-7{stroke-linecap:round;}.cls-8{fill:#993a10;}.cls-10,.cls-13,.cls-14,.cls-9{stroke-width:2px;}.cls-11{fill:#bad621;}.cls-12{fill:#231f20;}</style></defs><g id="Layer_2" data-name="Layer 2"><g id="Layer_2-2" data-name="Layer 2"><polygon class="cls-1" points="93.33 79.56 89.77 124.81 53.18 227.77 51.98 234.58 50.05 239.16 47.3 239.47 41.51 235.56 34.78 227.75 29.06 222.34 15.9 217.96 6.73 212.47 2.52 202.87 1.87 188.63 1.89 172.22 4.47 155.6 13.52 143.4 31.4 126.14 32.52 114.39 33.07 107.8 41.72 92.27 47.71 82.78 60.3 76.03 67.03 73.44 70.27 68.78 93.33 79.56"/><polygon class="cls-2" points="204.73 136.51 212.16 124.21 213.61 127.4 220.76 127.87 224.74 132.07 226.4 140.4 223.13 147.56 218.02 151.24 215.99 156.4 215.88 168.61 211.1 170.29 205.3 162.92 200.45 156.4 202.41 137.59 204.73 136.51"/><path class="cls-1" d="M15.61,137.65s-3.5-17.92.31-20.31S32,111.87,32,111.87l.76,9.4-7.53,18.1Z"/><polygon class="cls-3" points="48.07 84.44 59.81 85.02 70.03 90.31 73.64 94.29 74.06 98.15 63.74 98.22 50.21 100.22 38.92 97.4 48.07 84.44"/><path class="cls-2" d="M51,234.57,41,221.68s-8.5-6.17-12-9.39c-2.72-5.22-8.39-12.44-8.89-16.55.06-3.89-.61-36,.39-38.12s12.17-22.44,16.67-26S80.85,104.12,81,100.68s-3.5-11.33-1.83-13.78,5.22-10.11,7.55-11.19S99.4,67.07,99.4,67.07l64.69,2.05L187,76.24,197.4,86.9,202,111.57l2.39,18.5-3.15,13.5-1,7.78.58,6.92,8.3,9.19,2.05,8v15.11l-4.89,12.89-17.15,17.17L157.77,240,123.29,243l-10.43,5.82-14.23,3.36-9.89.24-6.09-2.59-3.28-5.2L76.46,239l-10,5L64,241.77l-5.88-8.86-2.55-2Z"/><path class="cls-1" d="M78.63,110.44s-8.67,25.3-2.12,39c7.12,9.89,12.77,11.37,24.89,12.56,14.67-1.78,20.33-2.62,20.33-2.62l-11.28,7-18.07,7.47-21-1.14-10.46-5.2-3.71-9.93.54-6.4-6-3.93,3.42-10.14,8-1,4.57-12.73Z"/><path class="cls-4" d="M70.81,91.35a13,13,0,0,1-5.41,1.72,5.44,5.44,0,0,1-4-1.56c-1.83-1.94-.84-6-.79-6.25"/><path class="cls-1" d="M134.14,104.37s6.6-15.63,28.75-16.38c6.22,0,12.42,2.34,20.51,7.34a55.18,55.18,0,0,1,15.41,15.11c-1.18,7-3.7,14.3-14.59,17.63a92.71,92.71,0,0,1-23.56-1S134.14,118.88,134.14,104.37Z"/><path class="cls-5" d="M76.35,59.85s12.33.35,19.94-4.49c4.61-4.9,8.61-10.4,11.28-9.57s11.22,4.81,15.06,6.6c5.16,0,15.38-1.54,15.38-1.54L151.9,50s3.11-2.28,3.11-7.5c-1.33-4.45-3.72-8.39,5.17-6.72,4.17-2.56,5.47-6.2,5.72-11.28s2.5-6.89,11.11-8.17c4.06-2.55,11.28-14.79,11.28-14.79S196-.71,201.85,9.12c4.64,3.65,7.55,6.23,2.66,11.39s-8.55,3.89-3.16,11c4.11,3.39,8.33,6.28,2.72,11.39-6.06.39-12.89,1.22-12.89,1.22l-.78,10.44-8.55,2.11-2.39,3.23s11.17,11.61,21.11,20.66c1.67,8.61.44,17.88,2.89,21.61,3.33,3.45,7.83,4.5,8.22,7.17-.34,3.45.56,16.06.56,16.06s-1.23,5.55-4.56,8.39c-2.94,2.72-3.89,4.72-8.11,3.33-.39-4.22-.17-19.89-.17-19.89s-5.66-3.44-4.22-15.83c-.78-7.17-3.94-19-8.67-19.89-4.33,1.16-7.44,3-10.55,3-3-1-13.28-6.78-13.28-6.78s-9.94,3.17-15.17,5.06c-2.55.72-5.16,2.55-11.61-6.56-2.39-.61.95-3.39-13.39,5.33-7.72,3.67-19,1.23-19,1.23s-7.73-11.7-10.39-11-8.49,5-8.49,5S71.36,71.28,70.85,66C72.53,61.93,73.13,59.29,76.35,59.85Z"/><path class="cls-6" d="M31.8,112.91s-11.26.35-12.8,1.46A10.94,10.94,0,0,0,14.29,121a43.27,43.27,0,0,0,0,12.79c.92,4.79,2.84,5.62,2.84,5.62"/><path class="cls-6" d="M25.22,121.27s-3.26,1.87-4.3,3.65,0,12.19,0,12.19"/><path class="cls-7" d="M96.74,95.85l-6.67,1.77s-22.89,21.45-26,33.45c-.2,2.51-.36,4.49-.48,6-.41,5.23-.41,5.63-.41,5.63"/><path class="cls-6" d="M63.59,137.11l-8-.6c-2.12,2.56-6,9.34-2.45,13.56,3,1.89,4.56,1.11,4.56,1.11a19.92,19.92,0,0,0,2,15.56c6.11,3.77,4.77,7.11,31.77,7.44,14-5.33,23.78-9,32.12-16.44"/><path class="cls-7" d="M123.63,164.74s7.33-2.23,9.11-11.45c-1.45-4.22-5.67-7.22-5.67-7.22l2.11-12"/><path class="cls-8" d="M31.8,169.62a65.55,65.55,0,0,1,34.87,8.89c8.07,3.78,7.62,3.56,13.29,3.56s17,1.46,43.67-6.1c18.44,1,48.66,3.43,48.66,3.43l-24.44,18s-2.45,2.22-18.45,4.45c-16.22,4.22-37.55,10.66-37.55,10.66s-17.34.89-22.67,0C63.18,209.85,29.75,203.85,31.8,169.62Z"/><path class="cls-6" d="M31.8,169.62s15.6,21,26.12,24.37c10,.82,74.82-1.11,74.82-1.11s22.46-6.2,31.35-14.12"/><path class="cls-6" d="M66.22,74.29S50.81,77.85,46.37,84.37c-1.69,2.47-2.61,4.15-6.61,11.48-.26.49-.55,1-.84,1.55-.53,1-1.18,2.15-2,3.55-.68,1.23-1.24,2.23-1.61,2.88l-3.8,6.61a26.45,26.45,0,0,1,1.31,9,15.9,15.9,0,0,1-1.31,6.36c-1.78,3.85-23.11,21.92-23.11,21.92s-6.52,10.08-6.81,19.85c.59,10.08.88,14.23,0,24s3,21.93,10.37,25.49c8.29,1.77,17.94,3.85,21.86,9.18,1.41,1.93,2,4.3,4.67,7.11,4.67,5,15.69,11.3,48.73,19,14.07.44,22.51-1.63,22.51-1.63L122.22,243l29.92-.74s35.12-12.59,56.6-42.07a50.56,50.56,0,0,0,1.92-29.34s5.63.74,6.37-5.63c-.59-5.48-2.07-11.55,0-13.33s9.93-4,9.34-14.07c-1.19-6.52-3.26-12.3-13.19-10.37-1-2.23-2.22-14.52-1.78-19.11-4.44-4-9.18-4.45-9.33-9.34s.15-14.52-1.63-18.07-21.93-18.52-21.33-21.63S188,55.92,188,55.92s2.81,0,2.51-4.3,0-7,1.78-7.55,11.11,0,11.11,0,5.78-3.7,2.82-9c-3.85-3.55-8.15-6.81-7.56-8.89s8.6-8.29,8.6-8.29.88-3.56-1.34-5.78-11.55-9.93-11.55-9.93S190.22.22,187.85,3c-2.67,2.82-7.41,10.67-7.41,10.67s-.59,2.37-10.07,3.41c-2.82,1.92-4.74,1.18-4.89,4.29s-.15,8.59-.15,8.59-1.78,5.63-5.48,5.34-8-1-6.37,4,1.78,9.78-.59,10.81a27.66,27.66,0,0,1-3.5.28c-2,.1-4.06.17-4.06.17s-7.41-.89-12,.74c-5.33.44-11.26.59-11.26.59s-11.85-6.81-14.67-6.52S95.55,55,92.89,57.7c-4.75.74-18.67,2.07-18.67,2.07s-3.41,3.56-3.41,6.82S66.22,74.29,66.22,74.29Z"/><path class="cls-9" d="M70.81,66.59s4.37,8.59,13.59,9.92c4.67-2.11,8.11-5,9.45-5,2.89.74,6.33,9.19,9.66,11.19,4.34,1.33,11.89,1.55,15.56.66s14.33-8.39,15-8.14c4,1.81,7.56,8.32,9.22,8.68,3.89,0,12.34-3.65,14.22-5.2,2.67-.89,5.12-1.67,7.45.11A43.43,43.43,0,0,0,175.4,85c4-.78,8.56-3,10.78-3.89,2.67,1.33,10,7.44,8.56,27.67.66,5.22,5,8.55,5,8.55s-1.34,18-1,19.78c2.77,1.22,7.53,1,10.66-5.56.89-5.11,3.32-5.62,3.32-5.62"/><path class="cls-10" d="M84.1,251.62a37.9,37.9,0,0,1-7.25-13c-.67,1.23-9.11,5.23-10.89,5.56-1.78-.78-6.67-11.56-10-13.11s-5.89,9.56-6.72,9.45-7.94-5-10.71-7.12c0,0-3.24,14.67-1.13,20.45,3.12,8.53,6.23-5,6.23-5s-1.56,18.22,2.44,21.77C49,268.85,54,258.07,54,258.07s-2.33,17.78,0,22.44c4.44-5,13.33-15.33,21-19.11,6.55-3,9.66-9.65,9.66-9.65"/><path class="cls-9" d="M111.74,51.85s-6.11,6.77-11.45,9.66A7.48,7.48,0,0,0,94.18,66c-.33,3.33-.33,5.59-.33,5.59"/><path class="cls-9" d="M131.18,59.4s-11.11,4.89-14.78,9.89-4.7,4.25-5.68,14.57"/><path class="cls-11" d="M159.18,44.51s7.87.1,19.22,13.17c-.11,2.61.78,2.89-5.69,2.61-6.71-1.28-17.17-4.51-22.1-8.56.46-1.11,2.35,0,3.35-3.27S155.29,44,159.18,44.51Z"/><path class="cls-9" d="M154,54.51s-5.45,1.15-5.56,12.08c-.22,4.7,1.8,5.89-8,14.52"/><path class="cls-9" d="M170,60v6.63s4.33,3.59,5.67,7c-.12,4.23-2.84,10.19-2.84,10.19"/><path class="cls-12" d="M149.39,50.42a26.17,26.17,0,0,0,3.35,2.13c1.12.65,2.31,1.17,3.47,1.7a59.82,59.82,0,0,0,7.24,2.56c2.45.75,5,1.26,7.53,1.84,1.28.25,2.57.5,3.87.79s2.62.48,3.94.85c-1.33.3-2.67.46-4,.63s-2.72.12-4.07.07a34.67,34.67,0,0,1-8.08-1.3,28,28,0,0,1-7.53-3.38,21.83,21.83,0,0,1-3.23-2.59A12.19,12.19,0,0,1,149.39,50.42Z"/><path class="cls-9" d="M179.77,58.18s-13.51-12.93-17.26-14a54.78,54.78,0,0,0-7.93,0"/><path class="cls-13" d="M162.25,44.19a14.6,14.6,0,0,1,7.23-4.57c3,0,4.55,0,5.11-.29,1-1.82,2.3-5.93,4-12.19,2.7-3.63,3.92-4.15,7.4-4.77s6.23-1.89,11.67-9.93"/><path class="cls-13" d="M172.71,51.73a19.34,19.34,0,0,1,4.69-4.25,23.49,23.49,0,0,0,6.19-.71c1.85-2.07,3.78-8,9-11.59,5.19-2.3,6-2.59,6-2.59"/><path class="cls-13" d="M47.26,84.44c2.31.71,10-1.25,16.88,2,6.18,2.91,11.52,8.92,10.37,11.26-.82,1.69-5.35-.36-14.81.89-5.18.68-6.6,1.67-10.67,1.48A25.54,25.54,0,0,1,38.92,97.4"/><path class="cls-13" d="M35.4,104.22c5.45.27,16.08,2.22,21.8,2.5"/><path class="cls-13" d="M33.07,109c4.81,2.42,12.56.34,16.39,2.86"/><path class="cls-13" d="M78.68,83.42c-8-.35-9.76-4-15.4-7.71"/><path class="cls-13" d="M146.76,94.51A25.89,25.89,0,0,1,159.21,89a26.29,26.29,0,0,1,10.25.64,39.29,39.29,0,0,1,18.36,10.27"/><path class="cls-14" d="M189.32,113.15c1.05-3.62-8.42-9.11-9.19-9.55-8.64-4.93-17.26-4.4-21.5-4.09-4.92.37-14.51,1.87-14.75,4.75-.2,2.3,5.57,4.87,9.36,5.89,4.44,1.2,5.44.06,10.16,1.09,5.86,1.26,6.15,3.4,11.14,4.61C180.65,117.33,188.46,116.12,189.32,113.15Z"/><path class="cls-4" d="M181.71,104.71c-2.36,6.69-5.31,7.23-7.56,7.08-2.55-.17-3.41-.89-4.44-3-1.18-2.4,1.58-7.85,1.64-8.08"/><path class="cls-13" d="M155.63,116.07a30.65,30.65,0,0,1,10.51,2.63,34.29,34.29,0,0,0,4.37,2,16.28,16.28,0,0,0,9.71-.26"/><path class="cls-13" d="M158.29,121.33a21.94,21.94,0,0,0,6.85,4.29,22.75,22.75,0,0,0,14,.67"/><path class="cls-13" d="M193.44,152.55a59.2,59.2,0,0,1,13.15,11.89,64,64,0,0,1,3.63,5.41"/><path class="cls-13" d="M202,138.74c0,5.88-2.18,12.87-1.3,18.84"/><path class="cls-13" d="M211,137.59a6.15,6.15,0,0,1,2.11,4.33c-.08,2.75-2.9,3.77-3.81,6.89-.43,1.47-.52,3.7,1.15,6.93"/></g></g></svg>