<svg id="Layer_5" data-name="Layer 5" xmlns="http://www.w3.org/2000/svg" viewBox="0 0 800 800"><defs><style>.cls-1{fill:#e7f7ed;}.cls-1,.cls-2{opacity:0.2;}.cls-3{fill:#be9b73;}.cls-4{fill:#8f7456;}.cls-5{fill:#559126;}.cls-6{fill:#fff;}.cls-7{fill:#ebebeb;}.cls-8{fill:#d9d9d9;}</style></defs><rect class="cls-1" width="800" height="800"/><g class="cls-2"><path class="cls-3" d="M439,0a49.86,49.86,0,0,0,14.64,34.85,50,50,0,0,0,70.71,0A49.81,49.81,0,0,0,539,0Z"/><path class="cls-3" d="M524.35,364.14A50,50,0,0,0,439,400H539A49.86,49.86,0,0,0,524.35,364.14Z"/><ellipse class="cls-4" cx="458.52" cy="369.02" rx="5" ry="2.33" transform="translate(-126.64 432.31) rotate(-45)"/><path class="cls-4" d="M472.57,362.52c.92.91.07,3.23-1.88,5.19s-4.27,2.79-5.19,1.88-.06-3.23,1.89-5.18S471.66,361.61,472.57,362.52Z"/><path class="cls-4" d="M459.09,376c.91.91.07,3.23-1.89,5.18s-4.27,2.8-5.18,1.89-.07-3.23,1.88-5.19S458.18,375.1,459.09,376Z"/><path class="cls-3" d="M800,150a50,50,0,0,0,0,100Z"/><path class="cls-3" d="M435.86,235.36A50,50,0,0,0,400,150V250A49.85,49.85,0,0,0,435.86,235.36Z"/><path class="cls-4" d="M434.51,173.06c-.91.91-3.23.07-5.18-1.89s-2.8-4.27-1.89-5.18,3.23-.07,5.19,1.88S435.42,172.15,434.51,173.06Z"/><path class="cls-4" d="M437.48,183.58c-.91.91-3.23.07-5.19-1.89s-2.79-4.27-1.88-5.18,3.23-.07,5.18,1.88S438.39,182.67,437.48,183.58Z"/><path class="cls-4" d="M424,170.09c-.91.91-3.23.07-5.18-1.88s-2.8-4.28-1.89-5.19,3.23-.07,5.19,1.89S424.9,169.18,424,170.09Z"/><path class="cls-5" d="M582.35,86.66a257.3,257.3,0,0,0,50,5.32,257.33,257.33,0,0,0-48-15.07A266,266,0,0,0,539,71.65L519,51.2a.9.9,0,0,0-.63-.27.88.88,0,0,0-.63.26l-3.55,3.55a.88.88,0,0,0-.26.63.86.86,0,0,0,.27.62l20.45,20a266,266,0,0,0,5.26,45.41,257.33,257.33,0,0,0,15.07,48,257.3,257.3,0,0,0-5.32-50,266.53,266.53,0,0,0-11.95-40.41l15.56,15.18a238,238,0,0,0,5.13,40.37,233.67,233.67,0,0,0,13.89,42.88,231,231,0,0,0-5.24-44.59,239.53,239.53,0,0,0-11-35.92L570,110.46a207.7,207.7,0,0,0,17.76,74.19,206.53,206.53,0,0,0-5.1-39.73A217.87,217.87,0,0,0,572.59,113l12.49,12.19a188,188,0,0,0,16.54,66.12,184.77,184.77,0,0,0-4.94-35.42,197.47,197.47,0,0,0-9.23-28.39l11.95,11.66a171.7,171.7,0,0,0,5.7,29.6A175.38,175.38,0,0,0,617,198.92a165.92,165.92,0,0,0-5.85-31.39,180.26,180.26,0,0,0-10.29-27l11.08,10.82a155.45,155.45,0,0,0,6.47,24.43,159.78,159.78,0,0,0,12.27,26.34,149.22,149.22,0,0,0-7-27.64,162.26,162.26,0,0,0-9-20.43l11.48,11.2a139.69,139.69,0,0,0,7.05,22.89,145.71,145.71,0,0,0,12,23.12,134,134,0,0,0-7.35-24.38,149.33,149.33,0,0,0-10.08-20l11.79,11.51a127,127,0,0,0,7.15,18.52,132.74,132.74,0,0,0,12,20,120.27,120.27,0,0,0-7.92-21.32A133.52,133.52,0,0,0,643,181.72l5,4.84a148,148,0,0,0,14.69,17.24A145,145,0,0,0,685,222a145,145,0,0,0-18.2-22.31A149,149,0,0,0,649.56,185l-4.84-5a133.52,133.52,0,0,0,13.87,7.79,120.27,120.27,0,0,0,21.32,7.92,132.74,132.74,0,0,0-20-12,127,127,0,0,0-18.52-7.15L629.85,164.8a149.33,149.33,0,0,0,20,10.08,134,134,0,0,0,24.38,7.35,145.71,145.71,0,0,0-23.12-12,139.4,139.4,0,0,0-22.89-7.05l-11.2-11.48a162.92,162.92,0,0,0,20.43,9,149.22,149.22,0,0,0,27.64,7,158.82,158.82,0,0,0-26.34-12.27,155.45,155.45,0,0,0-24.43-6.47l-13.08-13.4a178.18,178.18,0,0,0,29.16,12.59A166.65,166.65,0,0,0,661.59,155a176.16,176.16,0,0,0-29.75-12.92A168.27,168.27,0,0,0,601,135.21l-10.5-10.76a197.47,197.47,0,0,0,28.39,9.23,184.77,184.77,0,0,0,35.42,4.94,188,188,0,0,0-66.12-16.54L576,109.59a217.87,217.87,0,0,0,31.94,10.08,206.53,206.53,0,0,0,39.73,5.1A207.7,207.7,0,0,0,573.46,107l-13.6-13.94a239.53,239.53,0,0,0,35.92,11,231,231,0,0,0,44.59,5.24A233.67,233.67,0,0,0,597.49,95.4a238,238,0,0,0-40.37-5.13L541.94,74.71A266.53,266.53,0,0,0,582.35,86.66Z"/><path class="cls-3" d="M506.64,278.25a50,50,0,0,0,70.72-70.71Z"/><ellipse class="cls-6" cx="542" cy="242.9" rx="48.65" ry="27.57" transform="translate(-13.01 454.4) rotate(-45)"/><path class="cls-3" d="M522,222.86c-19.53,19.53-26.39,44.33-15.33,55.39s35.87,4.21,55.39-15.32,26.39-44.32,15.33-55.39S541.49,203.34,522,222.86Zm38.26,38.27c-17.74,17.74-40.35,24-50.4,13.94s-3.8-32.66,13.94-50.4,40.35-24,50.4-13.95S578,243.39,560.23,261.13Z"/><ellipse class="cls-7" cx="541.06" cy="241.95" rx="37.5" ry="20" transform="translate(-12.62 453.45) rotate(-45)"/><path class="cls-8" d="M530.42,271.22c7.82-1.91,16.82-7.17,24.78-15.12s13.22-17,15.12-24.79c-7.82,1.9-16.83,7.17-24.78,15.12S532.32,263.39,530.42,271.22Z"/><path class="cls-3" d="M480.75,181.64a50,50,0,0,0,0,70.71c6.51,6.51,27.61-4,47.14-23.57s30.08-40.63,23.57-47.14A50,50,0,0,0,480.75,181.64Z"/><path class="cls-4" d="M488.45,182.28c.92.91.07,3.23-1.88,5.19s-4.27,2.79-5.19,1.88-.06-3.23,1.89-5.18S487.54,181.37,488.45,182.28Z"/><path class="cls-4" d="M499,179.31c.91.91.07,3.24-1.88,5.19s-4.28,2.8-5.19,1.88-.06-3.23,1.89-5.18S498.06,178.4,499,179.31Z"/><path class="cls-4" d="M485.49,192.8c.91.91.06,3.23-1.89,5.19s-4.27,2.79-5.18,1.88-.07-3.23,1.88-5.18S484.58,191.89,485.49,192.8Z"/><circle class="cls-3" cx="687.5" cy="277" r="50" transform="translate(18.92 596.99) rotate(-47.52)"/><path class="cls-4" d="M721.51,250.06c-.91.91-3.23.07-5.18-1.89s-2.8-4.27-1.89-5.18,3.23-.07,5.19,1.88S722.42,249.15,721.51,250.06Z"/><ellipse class="cls-4" cx="720.94" cy="257.04" rx="2.33" ry="5" transform="translate(29.4 585.07) rotate(-45)"/><path class="cls-4" d="M711,247.09c-.91.91-3.23.07-5.18-1.88s-2.8-4.28-1.89-5.19,3.23-.07,5.19,1.89S711.9,246.18,711,247.09Z"/><circle class="cls-3" cx="711.5" cy="123" r="50"/><path class="cls-4" d="M716.5,79.9c0,1.29-2.24,2.33-5,2.33s-5-1-5-2.33,2.24-2.33,5-2.33S716.5,78.61,716.5,79.9Z"/><path class="cls-4" d="M726,85.24c0,1.29-2.24,2.33-5,2.33s-5-1-5-2.33,2.23-2.33,5-2.33S726,84,726,85.24Z"/><path class="cls-4" d="M707,85.24c0,1.29-2.23,2.33-5,2.33s-5-1-5-2.33,2.24-2.33,5-2.33S707,84,707,85.24Z"/><path class="cls-4" d="M486.09,142.85a50,50,0,1,0-70.71-70.71Z"/><ellipse class="cls-6" cx="450.73" cy="107.5" rx="37.7" ry="48.65" transform="translate(56 350.2) rotate(-45)"/><path class="cls-3" d="M423.33,134.9c19.53,19.53,47.62,23.09,62.76,7.95s11.57-43.22-8-62.75-47.62-23.09-62.75-8S403.81,115.37,423.33,134.9Zm52.34-52.33c17.74,17.74,21,43.35,7.24,57.1s-39.37,10.51-57.11-7.24-21-43.36-7.24-57.1S457.93,64.82,475.67,82.57Z"/><ellipse class="cls-7" cx="449.44" cy="108.79" rx="27.35" ry="37.5" transform="translate(54.71 349.67) rotate(-45)"/><path class="cls-8" d="M482.13,116c-.82-8.91-5.39-18.6-13.35-26.56s-17.65-12.53-26.55-13.34c.81,8.9,5.38,18.6,13.34,26.55S473.22,115.19,482.13,116Z"/><path class="cls-5" d="M609.83,293.3q-1.2,10.92-1.64,21.83a148.65,148.65,0,0,0-23.12,34,154.76,154.76,0,0,0-14,45.57c.06,0,10.1-18.34,21-41,6.89-14.36,12.58-27.14,15.91-34.64q-.28,9.76,0,19.48a135.69,135.69,0,0,0-18.21,31.36,142.06,142.06,0,0,0-8.55,30.1h3.72c3.06-6.73,7.15-16,11.32-26.35,5.22-13,9.41-24.63,11.86-31.52q.39,8.7,1.26,17.33a124.36,124.36,0,0,0-14.23,28.71,121.53,121.53,0,0,0-3.4,11.83h6.28c1-2.79,2-5.71,3-8.74,3.9-11.72,6.91-22.23,8.67-28.52q.82,7.42,2,14.79A111.12,111.12,0,0,0,603.16,400h5.51c1.89-11,3-19.65,3.25-22.06q1.47,9.17,3.5,18.24c-.41,1-.89,2.31-1.4,3.82h2.25v-.08l0,.08h3.19c-.05-.25-.11-.5-.16-.76l.42.76H623c-1.78-1.84-3.3-3.36-4.44-4.48q-1.49-7.49-2.6-15a114.06,114.06,0,0,0,13,19.49h7.57l-.81-.91c-8.79-9.78-16.95-17.65-20-20.52q-1.14-8.13-1.87-16.31a117,117,0,0,0,16.08,23.51A111.89,111.89,0,0,0,645.2,400h4.87c-3.77-4.78-9.26-11.57-15.66-18.89-8.76-9.95-16.95-18.23-20.88-22.1q-.66-8.56-.85-17.17a122.58,122.58,0,0,0,16.59,27.08,114.51,114.51,0,0,0,27.53,24.36s-9.34-13.42-22.08-29.3c-9.28-11.46-18-21.18-22.09-25.69q-.11-9.62.39-19.25a127.37,127.37,0,0,0,16.74,31.2,119.64,119.64,0,0,0,29.47,28.1c0-.06-9.7-15-23-33.25-9.7-13.23-18.78-24.66-23-29.93q.69-10.76,2.11-21.52a131.76,131.76,0,0,0,16.37,36A124.17,124.17,0,0,0,663,362.1c0-.08-10-16.8-23.5-37.76-10-15.28-19.26-28.75-23.56-34.92q2.05-14.13,5.42-28.2a.93.93,0,0,0-.09-.66.7.7,0,0,0-.51-.34l-4.56-.71a.87.87,0,0,0-.63.17,1,1,0,0,0-.37.6q-3.11,14.34-4.87,28.72a162.83,162.83,0,0,0-29.12,36.52A168,168,0,0,0,562.1,376c.07,0,12.6-20.2,26.76-44.9C597.83,315.33,605.42,301.39,609.83,293.3Z"/><path class="cls-5" d="M620.32,15.31a97.21,97.21,0,0,0-3.58,23.31A106.61,106.61,0,0,0,619.39,65s1.51-11.27,1.88-25.31c.22-9.37-.09-17.68-.31-22.22q2.34,7.85,5.1,15.57a89.81,89.81,0,0,0-.63,19.54,99.51,99.51,0,0,0,4.73,23.23,212.66,212.66,0,0,0-.66-22.62c-.49-6-1.2-11.52-1.8-15.64.81,2.15,1.63,4.3,2.49,6.43a105.32,105.32,0,0,0,7.34,21.41,108.1,108.1,0,0,0,15.93,24.42s-4.31-12.33-11-26.51c-3.89-8.25-7.78-15.4-10.37-20-.79-2.15-1.57-4.3-2.32-6.46A97.38,97.38,0,0,0,639,49.6a90.84,90.84,0,0,0,16.49,15s-5.9-8.61-13.92-18C636.14,40.19,631,35,628.27,32.35q-2.57-7.73-4.7-15.57a103.42,103.42,0,0,0,12.66,17.94,94.44,94.44,0,0,0,18.53,16.13s-6.62-9.29-15.61-19.55c-7.07-8-13.63-14.33-16.17-16.7q-1.92-7.26-3.5-14.6h-3.19Q618.12,7.71,620.32,15.31Z"/><path class="cls-5" d="M631.7,17a99.33,99.33,0,0,0,20.39,18s-7.17-10.24-17-21.72C630.64,8.06,626.35,3.47,623,0h-3.25A107.52,107.52,0,0,0,631.7,17Z"/><path class="cls-5" d="M655.4,7s-2-2.69-5.33-6.95H645.2A96.86,96.86,0,0,0,655.4,7Z"/><path class="cls-5" d="M609.22,20.33A113.1,113.1,0,0,0,609.33,50s2.87-12.46,4.87-28c1.1-8.72,1.71-16.64,2.07-21.94H614A105.63,105.63,0,0,0,609.22,20.33Z"/><path class="cls-5" d="M631.81,3.33a103.87,103.87,0,0,0,23.08,19.11S647.14,12,636.49,0h-7.57C629.84,1.11,630.8,2.23,631.81,3.33Z"/><path class="cls-5" d="M579.94,10.91S582,6.75,585.06,0h-3.72C580.2,6.67,579.94,10.94,579.94,10.91Z"/><path class="cls-5" d="M588.47,25S593,14.46,598.15,0h-6.28A129.69,129.69,0,0,0,588.47,25Z"/><path class="cls-5" d="M601.48,7.13a123.18,123.18,0,0,0-1.92,33.35s4-13.9,7.44-31.25c.61-3.2,1.17-6.3,1.67-9.23h-5.51C602.55,2.26,602,4.64,601.48,7.13Z"/><path class="cls-5" d="M506.7,304.83q-10.92-1.2-21.83-1.64a148.65,148.65,0,0,0-34-23.12,154.76,154.76,0,0,0-45.57-14c0,.06,18.34,10.1,41,21,14.36,6.89,27.14,12.58,34.64,15.91q-9.76-.29-19.48,0a135.69,135.69,0,0,0-31.36-18.21,142.06,142.06,0,0,0-30.1-8.55v3.72c6.73,3.06,16,7.15,26.35,11.32,13,5.22,24.63,9.41,31.52,11.86q-8.7.39-17.33,1.26a124.36,124.36,0,0,0-28.71-14.23,121.53,121.53,0,0,0-11.83-3.4v6.28c2.79,1,5.71,2,8.74,3,11.72,3.9,22.23,6.91,28.52,8.67q-7.42.82-14.79,2A111.12,111.12,0,0,0,400,298.16v5.51c11,1.89,19.65,3,22.06,3.25q-9.17,1.47-18.24,3.5c-1-.41-2.31-.89-3.82-1.4v2.25h.08l-.08,0v3.19l.76-.16-.76.42V318c1.84-1.78,3.36-3.3,4.48-4.44q7.49-1.49,15-2.6a114.48,114.48,0,0,0-19.49,13v7.58l.91-.81c9.78-8.79,17.65-16.95,20.52-20q8.13-1.14,16.31-1.87a117,117,0,0,0-23.51,16.08A111.89,111.89,0,0,0,400,340.2v4.87c4.78-3.77,11.57-9.26,18.89-15.66,9.94-8.76,18.23-17,22.1-20.88q8.56-.66,17.17-.85a122.58,122.58,0,0,0-27.08,16.59,114.51,114.51,0,0,0-24.36,27.53s13.42-9.34,29.3-22.08c11.46-9.28,21.18-18,25.69-22.09q9.62-.11,19.25.39a127.37,127.37,0,0,0-31.2,16.74,119.64,119.64,0,0,0-28.1,29.47c.06,0,15-9.7,33.25-23,13.23-9.7,24.66-18.78,29.93-23q10.76.69,21.52,2.11a131.76,131.76,0,0,0-36,16.37A124.17,124.17,0,0,0,437.9,358c.08,0,16.8-10,37.76-23.5,15.28-10,28.75-19.26,34.92-23.56q14.13,2.06,28.2,5.42a.93.93,0,0,0,.66-.09.7.7,0,0,0,.34-.51c.24-1.52.48-3,.71-4.56a.87.87,0,0,0-.17-.63,1,1,0,0,0-.6-.37q-14.34-3.1-28.72-4.87a162.83,162.83,0,0,0-36.52-29.12A168,168,0,0,0,424,257.1c0,.07,20.2,12.6,44.9,26.76C484.67,292.83,498.61,300.42,506.7,304.83Z"/><path class="cls-5" d="M784.69,315.32a97.21,97.21,0,0,0-23.31-3.58A106.4,106.4,0,0,0,735,314.39s11.26,1.51,25.3,1.88c9.37.22,17.68-.09,22.22-.31q-7.85,2.34-15.57,5.1a89.81,89.81,0,0,0-19.54-.63,99.51,99.51,0,0,0-23.23,4.73,212.66,212.66,0,0,0,22.62-.66c6-.49,11.52-1.2,15.64-1.8-2.15.81-4.3,1.63-6.43,2.49a105.32,105.32,0,0,0-21.41,7.34,108.1,108.1,0,0,0-24.42,15.93s12.33-4.31,26.51-11c8.25-3.89,15.4-7.78,20-10.37,2.15-.79,4.3-1.57,6.46-2.32A97.38,97.38,0,0,0,750.4,334a90.84,90.84,0,0,0-15,16.49s8.61-5.9,18-13.92c6.38-5.46,11.54-10.58,14.22-13.33q7.73-2.56,15.57-4.7a103.42,103.42,0,0,0-17.94,12.66,94.44,94.44,0,0,0-16.13,18.53s9.29-6.62,19.55-15.61c8-7.07,14.33-13.63,16.7-16.17q7.26-1.92,14.6-3.5v-3.19Q792.29,313.12,784.69,315.32Z"/><path class="cls-5" d="M783,326.7a99.33,99.33,0,0,0-18,20.39s10.24-7.17,21.72-17c5.22-4.49,9.81-8.78,13.28-12.14v-3.25A107.52,107.52,0,0,0,783,326.7Z"/><path class="cls-5" d="M793.05,350.4s2.69-2,7-5.33V340.2A96.86,96.86,0,0,0,793.05,350.4Z"/><path class="cls-5" d="M779.67,304.22a113.1,113.1,0,0,0-29.65.11s12.46,2.87,28,4.87c8.72,1.1,16.64,1.71,21.94,2.07V309A105.63,105.63,0,0,0,779.67,304.22Z"/><path class="cls-5" d="M796.67,326.81a103.87,103.87,0,0,0-19.11,23.08S788,342.14,800,331.49v-7.58C798.89,324.84,797.77,325.8,796.67,326.81Z"/><path class="cls-5" d="M789.09,274.94s4.16,2.06,10.91,5.12v-3.72C793.33,275.2,789.06,274.94,789.09,274.94Z"/><path class="cls-5" d="M775,283.47s10.52,4.52,25,9.68v-6.28A129.69,129.69,0,0,0,775,283.47Z"/><path class="cls-5" d="M792.87,296.48a123.18,123.18,0,0,0-33.35-1.92s13.9,4,31.25,7.44c3.2.61,6.3,1.17,9.23,1.67v-5.51C797.74,297.55,795.36,297,792.87,296.48Z"/><path class="cls-4" d="M776.36,366.88,743.23,400H791A49.8,49.8,0,0,0,776.36,366.88Z"/><path class="cls-6" d="M775.4,367.83c-14.72-14.72-42.06-11.25-61.06,7.74A58.68,58.68,0,0,0,699.48,400h84.16C786.07,387.79,783.48,375.91,775.4,367.83Z"/><path class="cls-7" d="M766.23,374.43C755.55,363.74,735,367,720.37,381.6A47.55,47.55,0,0,0,708.76,400h62.47C774,390.21,772.45,380.65,766.23,374.43Z"/><path class="cls-8" d="M772.4,393.73A40.7,40.7,0,0,0,754.7,400h16.52A35.58,35.58,0,0,0,772.4,393.73Z"/><path class="cls-3" d="M716.07,377.3c17.74-17.74,43.36-21,57.11-7.24,7.51,7.51,9.93,18.56,7.71,29.94h3.92c2.52-12.57-.14-24.81-8.45-33.12-15.14-15.14-43.23-11.57-62.76,7.95A60.12,60.12,0,0,0,698.31,400h3.91A54.76,54.76,0,0,1,716.07,377.3Z"/><path class="cls-4" d="M743.23,0,705.65,37.59a50,50,0,0,0,70.71,0A49.87,49.87,0,0,0,791,0Z"/><path class="cls-6" d="M699.48,0c-4.1,13.73-1.94,27.57,7.12,36.63,14.73,14.72,42.06,11.26,61.06-7.74A57.38,57.38,0,0,0,783.64,0Z"/><path class="cls-7" d="M708.76,0c-3.46,10.44-2.18,20.84,4.44,27.46,10.68,10.68,31.21,7.47,45.85-7.18A46.81,46.81,0,0,0,771.23,0Z"/><path class="cls-8" d="M754.7,0a49.81,49.81,0,0,0-8.86,7.07c-8,8-12.53,17.65-13.35,26.56,8.91-.82,18.61-5.39,26.56-13.35A46.69,46.69,0,0,0,771.22,0Z"/><path class="cls-3" d="M780.89,0a53.55,53.55,0,0,1-14.95,27.17c-17.74,17.74-43.36,21-57.11,7.24-8.49-8.5-10.49-21.52-6.61-34.41h-3.91c-4.19,14.09-2,28.29,7.34,37.59,15.13,15.13,43.23,11.57,62.75-8A58.91,58.91,0,0,0,784.81,0Z"/></g><g class="cls-2"><path class="cls-3" d="M39,0A49.86,49.86,0,0,0,53.64,34.85a50,50,0,0,0,70.71,0A49.81,49.81,0,0,0,139,0Z"/><path class="cls-3" d="M124.35,364.14A50,50,0,0,0,39,400H139A49.86,49.86,0,0,0,124.35,364.14Z"/><path class="cls-4" d="M62.06,365.49c.91.91.06,3.23-1.89,5.18s-4.27,2.8-5.18,1.89-.07-3.23,1.88-5.19S61.14,364.58,62.06,365.49Z"/><path class="cls-4" d="M72.57,362.52c.92.91.07,3.23-1.88,5.19s-4.27,2.79-5.19,1.88-.06-3.23,1.89-5.18S71.66,361.61,72.57,362.52Z"/><path class="cls-4" d="M59.09,376c.91.91.07,3.23-1.89,5.18S52.93,384,52,383.08s-.07-3.23,1.88-5.19S58.18,375.1,59.09,376Z"/><path class="cls-3" d="M400,150a50,50,0,0,0,0,100Z"/><path class="cls-3" d="M35.86,235.36a50,50,0,0,0,0-70.71A49.82,49.82,0,0,0,0,150V250A49.85,49.85,0,0,0,35.86,235.36Z"/><ellipse class="cls-4" cx="30.98" cy="169.52" rx="2.33" ry="5" transform="translate(-110.8 71.56) rotate(-45)"/><path class="cls-4" d="M37.48,183.58c-.91.91-3.23.07-5.19-1.89s-2.79-4.27-1.88-5.18,3.23-.07,5.18,1.88S38.39,182.67,37.48,183.58Z"/><path class="cls-4" d="M24,170.09c-.91.91-3.23.07-5.18-1.88S16,163.93,16.92,163s3.23-.07,5.19,1.89S24.9,169.18,24,170.09Z"/><path class="cls-5" d="M182.35,86.66a257.3,257.3,0,0,0,50,5.32,257.33,257.33,0,0,0-48-15.07A266,266,0,0,0,139,71.65L119,51.2a.9.9,0,0,0-.63-.27.88.88,0,0,0-.63.26l-3.55,3.55a.88.88,0,0,0-.26.63.86.86,0,0,0,.27.62l20.45,20a266,266,0,0,0,5.26,45.41,257.33,257.33,0,0,0,15.07,48,257.3,257.3,0,0,0-5.32-50,266.53,266.53,0,0,0-11.95-40.41l15.56,15.18a238,238,0,0,0,5.13,40.37,233.67,233.67,0,0,0,13.89,42.88,231,231,0,0,0-5.24-44.59,239.53,239.53,0,0,0-11-35.92L170,110.46a207.7,207.7,0,0,0,17.76,74.19,206.53,206.53,0,0,0-5.1-39.73A217.87,217.87,0,0,0,172.59,113l12.49,12.19a188,188,0,0,0,16.54,66.12,184.77,184.77,0,0,0-4.94-35.42,197.47,197.47,0,0,0-9.23-28.39l12,11.66a171.7,171.7,0,0,0,5.7,29.6A175.38,175.38,0,0,0,217,198.92a165.92,165.92,0,0,0-5.85-31.39,180.26,180.26,0,0,0-10.29-27l11.08,10.82a155.45,155.45,0,0,0,6.47,24.43,159.78,159.78,0,0,0,12.27,26.34,149.22,149.22,0,0,0-7-27.64,162.26,162.26,0,0,0-9-20.43l11.48,11.2a139.69,139.69,0,0,0,7.05,22.89,145.71,145.71,0,0,0,12,23.12,134,134,0,0,0-7.35-24.38,149.33,149.33,0,0,0-10.08-20l11.79,11.51a127,127,0,0,0,7.15,18.52,132.74,132.74,0,0,0,12,20,120.27,120.27,0,0,0-7.92-21.32A133.52,133.52,0,0,0,243,181.72l5,4.84a148,148,0,0,0,14.69,17.24A145,145,0,0,0,285,222a145,145,0,0,0-18.2-22.31A149,149,0,0,0,249.56,185l-4.84-5a133.52,133.52,0,0,0,13.87,7.79,120.27,120.27,0,0,0,21.32,7.92,132.74,132.74,0,0,0-20-12,127,127,0,0,0-18.52-7.15L229.85,164.8a149.33,149.33,0,0,0,20,10.08,134,134,0,0,0,24.38,7.35,145.71,145.71,0,0,0-23.12-12,139.4,139.4,0,0,0-22.89-7.05l-11.2-11.48a162.92,162.92,0,0,0,20.43,9,149.22,149.22,0,0,0,27.64,7,158.82,158.82,0,0,0-26.34-12.27,155.45,155.45,0,0,0-24.43-6.47l-13.08-13.4a178.18,178.18,0,0,0,29.16,12.59A166.65,166.65,0,0,0,261.59,155a176.16,176.16,0,0,0-29.75-12.92A168.27,168.27,0,0,0,201,135.21l-10.5-10.76a197.47,197.47,0,0,0,28.39,9.23,184.77,184.77,0,0,0,35.42,4.94,188,188,0,0,0-66.12-16.54L176,109.59a217.87,217.87,0,0,0,31.94,10.08,206.53,206.53,0,0,0,39.73,5.1A207.7,207.7,0,0,0,173.46,107l-13.6-13.94a239.53,239.53,0,0,0,35.92,11,231,231,0,0,0,44.59,5.24A233.67,233.67,0,0,0,197.49,95.4a238,238,0,0,0-40.37-5.13L141.94,74.71A266.53,266.53,0,0,0,182.35,86.66Z"/><path class="cls-3" d="M106.65,278.25a50,50,0,0,0,70.71-70.71Z"/><ellipse class="cls-6" cx="142" cy="242.9" rx="48.65" ry="27.57" transform="translate(-130.16 171.55) rotate(-45)"/><path class="cls-3" d="M122,222.86c-19.53,19.53-26.39,44.33-15.32,55.39s35.86,4.21,55.38-15.32,26.39-44.32,15.33-55.39S141.49,203.34,122,222.86Zm38.26,38.27c-17.74,17.74-40.35,24-50.4,13.94s-3.8-32.66,13.94-50.4,40.35-24,50.4-13.95S178,243.39,160.23,261.13Z"/><ellipse class="cls-7" cx="141.06" cy="241.95" rx="37.5" ry="20" transform="translate(-129.77 170.61) rotate(-45)"/><path class="cls-8" d="M130.42,271.22c7.82-1.91,16.82-7.17,24.78-15.12s13.22-17,15.12-24.79c-7.82,1.9-16.83,7.17-24.78,15.12S132.32,263.39,130.42,271.22Z"/><path class="cls-3" d="M80.75,181.64a50,50,0,0,0,0,70.71c6.51,6.51,27.61-4,47.14-23.57s30.08-40.63,23.57-47.14A50,50,0,0,0,80.75,181.64Z"/><path class="cls-4" d="M88.45,182.28c.92.91.07,3.23-1.88,5.19s-4.27,2.79-5.19,1.88-.06-3.23,1.89-5.18S87.54,181.37,88.45,182.28Z"/><path class="cls-4" d="M99,179.31c.91.91.07,3.24-1.88,5.19s-4.28,2.8-5.19,1.88-.06-3.23,1.89-5.18S98.06,178.4,99,179.31Z"/><path class="cls-4" d="M85.49,192.8c.91.91.06,3.23-1.89,5.19s-4.27,2.79-5.18,1.88-.07-3.23,1.88-5.18S84.58,191.89,85.49,192.8Z"/><circle class="cls-3" cx="287.5" cy="277" r="50" transform="translate(-111.33 294.92) rotate(-46.51)"/><path class="cls-4" d="M321.51,250.06c-.91.91-3.23.07-5.18-1.89s-2.8-4.27-1.89-5.18,3.23-.07,5.19,1.88S322.42,249.15,321.51,250.06Z"/><path class="cls-4" d="M324.48,260.58c-.91.91-3.23.07-5.19-1.89s-2.79-4.27-1.88-5.18,3.23-.07,5.18,1.88S325.39,259.67,324.48,260.58Z"/><path class="cls-4" d="M311,247.09c-.91.91-3.23.07-5.18-1.88s-2.8-4.28-1.89-5.19,3.23-.07,5.19,1.89S311.9,246.18,311,247.09Z"/><circle class="cls-3" cx="311.5" cy="123" r="50"/><path class="cls-4" d="M316.5,79.9c0,1.29-2.24,2.33-5,2.33s-5-1-5-2.33,2.24-2.33,5-2.33S316.5,78.61,316.5,79.9Z"/><path class="cls-4" d="M326,85.24c0,1.29-2.24,2.33-5,2.33s-5-1-5-2.33,2.23-2.33,5-2.33S326,84,326,85.24Z"/><path class="cls-4" d="M307,85.24c0,1.29-2.23,2.33-5,2.33s-5-1-5-2.33,2.24-2.33,5-2.33S307,84,307,85.24Z"/><path class="cls-4" d="M86.09,142.85A50,50,0,0,0,15.38,72.14Z"/><ellipse class="cls-6" cx="50.73" cy="107.5" rx="37.7" ry="48.65" transform="translate(-61.15 67.36) rotate(-45)"/><path class="cls-3" d="M23.33,134.9C42.86,154.43,71,158,86.09,142.85s11.57-43.22-8-62.75S30.51,57,15.38,72.14,3.81,115.37,23.33,134.9ZM75.67,82.57c17.74,17.74,21,43.35,7.24,57.1s-39.37,10.51-57.11-7.24-21-43.36-7.24-57.1S57.93,64.82,75.67,82.57Z"/><ellipse class="cls-7" cx="49.44" cy="108.79" rx="27.35" ry="37.5" transform="translate(-62.44 66.82) rotate(-45)"/><path class="cls-8" d="M82.13,116c-.82-8.91-5.39-18.6-13.35-26.56S51.13,76.92,42.23,76.11c.81,8.9,5.38,18.6,13.34,26.55S73.22,115.19,82.13,116Z"/><path class="cls-5" d="M209.83,293.3q-1.2,10.92-1.64,21.83a148.65,148.65,0,0,0-23.12,34,154.76,154.76,0,0,0-14,45.57c.06,0,10.1-18.34,21.05-41,6.89-14.36,12.58-27.14,15.91-34.64q-.28,9.76,0,19.48a135.69,135.69,0,0,0-18.21,31.36,142.06,142.06,0,0,0-8.55,30.1h3.72c3.06-6.73,7.15-16,11.32-26.35,5.22-13,9.41-24.63,11.86-31.52q.39,8.7,1.26,17.33a124.36,124.36,0,0,0-14.23,28.71,121.53,121.53,0,0,0-3.4,11.83h6.28c1-2.79,2-5.71,3-8.74,3.9-11.72,6.91-22.23,8.67-28.52q.83,7.42,2,14.79A111.12,111.12,0,0,0,203.16,400h5.51c1.89-11,3-19.65,3.25-22.06q1.47,9.17,3.5,18.24c-.41,1-.89,2.31-1.4,3.82h2.25v-.08l0,.08h3.19c0-.25-.11-.5-.16-.76l.42.76H223c-1.78-1.84-3.3-3.36-4.44-4.48q-1.49-7.49-2.6-15a114.48,114.48,0,0,0,13,19.49h7.58l-.81-.91c-8.79-9.78-17-17.65-20-20.52q-1.14-8.13-1.87-16.31a117,117,0,0,0,16.08,23.51A111.89,111.89,0,0,0,245.2,400h4.87c-3.77-4.78-9.26-11.57-15.66-18.89-8.76-9.95-16.95-18.23-20.88-22.1q-.66-8.56-.85-17.17a122.58,122.58,0,0,0,16.59,27.08,114.51,114.51,0,0,0,27.53,24.36s-9.34-13.42-22.08-29.3c-9.28-11.46-18-21.18-22.09-25.69q-.1-9.62.39-19.25a127.37,127.37,0,0,0,16.74,31.2,119.64,119.64,0,0,0,29.47,28.1c0-.06-9.7-15-23-33.25-9.7-13.23-18.78-24.66-23-29.93q.69-10.76,2.11-21.52a131.76,131.76,0,0,0,16.37,36A124.17,124.17,0,0,0,263,362.1c0-.08-10-16.8-23.5-37.76-10-15.28-19.26-28.75-23.56-34.92q2.06-14.13,5.42-28.2a.93.93,0,0,0-.09-.66.7.7,0,0,0-.51-.34l-4.56-.71a.87.87,0,0,0-.63.17,1,1,0,0,0-.37.6q-3.1,14.34-4.87,28.72a162.83,162.83,0,0,0-29.12,36.52A168,168,0,0,0,162.1,376c.07,0,12.6-20.2,26.76-44.9C197.83,315.33,205.42,301.39,209.83,293.3Z"/><path class="cls-5" d="M220.32,15.31a97.21,97.21,0,0,0-3.58,23.31A106.61,106.61,0,0,0,219.39,65s1.51-11.27,1.88-25.31c.22-9.37-.09-17.68-.31-22.22q2.34,7.85,5.1,15.57a89.81,89.81,0,0,0-.63,19.54,99.51,99.51,0,0,0,4.73,23.23,212.66,212.66,0,0,0-.66-22.62c-.49-6-1.2-11.52-1.8-15.64.81,2.15,1.63,4.3,2.49,6.43a105.32,105.32,0,0,0,7.34,21.41,108.1,108.1,0,0,0,15.93,24.42s-4.31-12.33-11-26.51c-3.89-8.25-7.78-15.4-10.37-20-.79-2.15-1.57-4.3-2.32-6.46A97.38,97.38,0,0,0,239,49.6a90.84,90.84,0,0,0,16.49,15s-5.9-8.61-13.92-18C236.14,40.19,231,35,228.27,32.35q-2.57-7.73-4.7-15.57a103.42,103.42,0,0,0,12.66,17.94,94.44,94.44,0,0,0,18.53,16.13s-6.62-9.29-15.61-19.55c-7.07-8-13.63-14.33-16.17-16.7q-1.92-7.26-3.5-14.6h-3.19Q218.12,7.71,220.32,15.31Z"/><path class="cls-5" d="M231.7,17a99.33,99.33,0,0,0,20.39,18s-7.17-10.24-17-21.72C230.64,8.06,226.35,3.47,223,0h-3.25A107.52,107.52,0,0,0,231.7,17Z"/><path class="cls-5" d="M255.4,7s-2-2.69-5.33-6.95H245.2A96.86,96.86,0,0,0,255.4,7Z"/><path class="cls-5" d="M209.22,20.33A113.1,113.1,0,0,0,209.33,50s2.87-12.46,4.87-28c1.1-8.72,1.71-16.64,2.07-21.94H214A105.63,105.63,0,0,0,209.22,20.33Z"/><path class="cls-5" d="M231.81,3.33a103.87,103.87,0,0,0,23.08,19.11S247.14,12,236.49,0h-7.58C229.84,1.11,230.8,2.23,231.81,3.33Z"/><path class="cls-5" d="M179.94,10.91S182,6.75,185.06,0h-3.72C180.2,6.67,179.94,10.94,179.94,10.91Z"/><path class="cls-5" d="M188.47,25S193,14.46,198.15,0h-6.28A129.69,129.69,0,0,0,188.47,25Z"/><path class="cls-5" d="M201.48,7.13a123.18,123.18,0,0,0-1.92,33.35s4-13.9,7.44-31.25c.61-3.2,1.17-6.3,1.67-9.23h-5.51C202.55,2.26,202,4.64,201.48,7.13Z"/><path class="cls-5" d="M106.7,304.83q-10.92-1.2-21.83-1.64a148.65,148.65,0,0,0-34-23.12,154.76,154.76,0,0,0-45.57-14c0,.06,18.34,10.1,41,21,14.36,6.89,27.14,12.58,34.64,15.91q-9.76-.29-19.48,0A135.69,135.69,0,0,0,30.1,284.89,142.06,142.06,0,0,0,0,276.34v3.72c6.73,3.06,16,7.15,26.35,11.32,13,5.22,24.63,9.41,31.52,11.86q-8.7.39-17.33,1.26a124.36,124.36,0,0,0-28.71-14.23A121.53,121.53,0,0,0,0,286.87v6.28c2.79,1,5.71,2,8.75,3,11.71,3.9,22.22,6.91,28.51,8.67q-7.42.82-14.79,2A111.12,111.12,0,0,0,0,298.16v5.51c11,1.89,19.65,3,22.06,3.25q-9.16,1.47-18.24,3.5c-1-.41-2.31-.89-3.82-1.4v2.25H.08l-.08,0v3.19l.76-.16-.76.42V318c1.84-1.78,3.36-3.3,4.48-4.44q7.49-1.49,15-2.6A114.48,114.48,0,0,0,0,323.91v7.58l.91-.81c9.78-8.79,17.65-16.95,20.52-20q8.13-1.14,16.31-1.87a117,117,0,0,0-23.51,16.08A111.89,111.89,0,0,0,0,340.2v4.87c4.78-3.77,11.57-9.26,18.89-15.66,10-8.76,18.23-17,22.1-20.88q8.57-.66,17.17-.85a122.58,122.58,0,0,0-27.08,16.59A114.51,114.51,0,0,0,6.72,351.8s13.42-9.34,29.3-22.08c11.46-9.28,21.18-18,25.69-22.09q9.62-.11,19.25.39a127.37,127.37,0,0,0-31.2,16.74,119.64,119.64,0,0,0-28.1,29.47c.06,0,15-9.7,33.25-23,13.23-9.7,24.66-18.78,29.93-23q10.75.69,21.52,2.11a131.76,131.76,0,0,0-36,16.37A124.17,124.17,0,0,0,37.9,358c.08,0,16.8-10,37.76-23.5,15.28-10,28.75-19.26,34.92-23.56q14.13,2.06,28.2,5.42a.93.93,0,0,0,.66-.09.7.7,0,0,0,.34-.51c.24-1.52.48-3,.71-4.56a.87.87,0,0,0-.17-.63,1,1,0,0,0-.6-.37q-14.34-3.1-28.72-4.87a162.83,162.83,0,0,0-36.52-29.12A168,168,0,0,0,24,257.1c0,.07,20.2,12.6,44.9,26.76C84.67,292.83,98.61,300.42,106.7,304.83Z"/><path class="cls-5" d="M384.69,315.32a97.21,97.21,0,0,0-23.31-3.58A106.4,106.4,0,0,0,335,314.39s11.26,1.51,25.3,1.88c9.37.22,17.68-.09,22.22-.31q-7.85,2.34-15.57,5.1a89.81,89.81,0,0,0-19.54-.63,99.51,99.51,0,0,0-23.23,4.73,212.66,212.66,0,0,0,22.62-.66c6-.49,11.52-1.2,15.64-1.8-2.15.81-4.3,1.63-6.43,2.49a105.32,105.32,0,0,0-21.41,7.34,108.1,108.1,0,0,0-24.42,15.93s12.33-4.31,26.51-11c8.25-3.89,15.4-7.78,20-10.37,2.15-.79,4.3-1.57,6.46-2.32A97.38,97.38,0,0,0,350.4,334a90.84,90.84,0,0,0-15,16.49s8.61-5.9,18-13.92c6.38-5.46,11.54-10.58,14.22-13.33q7.73-2.56,15.57-4.7a103.42,103.42,0,0,0-17.94,12.66,94.44,94.44,0,0,0-16.13,18.53s9.29-6.62,19.55-15.61c8-7.07,14.33-13.63,16.7-16.17q7.26-1.92,14.6-3.5v-3.19Q392.29,313.12,384.69,315.32Z"/><path class="cls-5" d="M383,326.7a99.33,99.33,0,0,0-18,20.39s10.24-7.17,21.72-17c5.22-4.49,9.81-8.78,13.28-12.14v-3.25A107.52,107.52,0,0,0,383,326.7Z"/><path class="cls-5" d="M393.05,350.4s2.69-2,6.95-5.33V340.2A96.86,96.86,0,0,0,393.05,350.4Z"/><path class="cls-5" d="M379.67,304.22a113.1,113.1,0,0,0-29.65.11s12.46,2.87,28,4.87c8.72,1.1,16.64,1.71,21.94,2.07V309A105.63,105.63,0,0,0,379.67,304.22Z"/><path class="cls-5" d="M396.67,326.81a103.87,103.87,0,0,0-19.11,23.08S388,342.14,400,331.49v-7.58C398.89,324.84,397.77,325.8,396.67,326.81Z"/><path class="cls-5" d="M389.09,274.94s4.16,2.06,10.91,5.12v-3.72C393.33,275.2,389.06,274.94,389.09,274.94Z"/><path class="cls-5" d="M375,283.47s10.52,4.52,25,9.68v-6.28A129.69,129.69,0,0,0,375,283.47Z"/><path class="cls-5" d="M392.87,296.48a123.18,123.18,0,0,0-33.35-1.92s13.9,4,31.25,7.44c3.2.61,6.3,1.17,9.23,1.67v-5.51C397.74,297.55,395.36,297,392.87,296.48Z"/><path class="cls-4" d="M376.36,366.88,343.23,400H391A49.8,49.8,0,0,0,376.36,366.88Z"/><path class="cls-6" d="M375.4,367.83c-14.72-14.72-42.06-11.25-61.06,7.74A58.68,58.68,0,0,0,299.48,400h84.16C386.07,387.79,383.48,375.91,375.4,367.83Z"/><path class="cls-7" d="M366.23,374.43C355.55,363.74,335,367,320.37,381.6A47.55,47.55,0,0,0,308.76,400h62.47C374,390.21,372.45,380.65,366.23,374.43Z"/><path class="cls-8" d="M372.4,393.73A40.7,40.7,0,0,0,354.7,400h16.52A35.58,35.58,0,0,0,372.4,393.73Z"/><path class="cls-3" d="M316.07,377.3c17.74-17.74,43.36-21,57.11-7.24,7.51,7.51,9.93,18.56,7.71,29.94h3.92c2.52-12.57-.14-24.81-8.45-33.12-15.14-15.14-43.23-11.57-62.76,7.95A60.12,60.12,0,0,0,298.31,400h3.91A54.76,54.76,0,0,1,316.07,377.3Z"/><path class="cls-4" d="M343.23,0,305.65,37.59a50,50,0,0,0,70.71,0A49.87,49.87,0,0,0,391,0Z"/><path class="cls-6" d="M299.48,0c-4.1,13.73-1.94,27.57,7.12,36.63,14.73,14.72,42.06,11.26,61.06-7.74A57.38,57.38,0,0,0,383.64,0Z"/><path class="cls-7" d="M308.76,0c-3.46,10.44-2.18,20.84,4.44,27.46,10.68,10.68,31.21,7.47,45.85-7.18A46.81,46.81,0,0,0,371.23,0Z"/><path class="cls-8" d="M354.7,0a49.81,49.81,0,0,0-8.86,7.07c-8,8-12.53,17.65-13.35,26.56,8.91-.82,18.61-5.39,26.56-13.35A46.69,46.69,0,0,0,371.22,0Z"/><path class="cls-3" d="M380.89,0a53.55,53.55,0,0,1-14.95,27.17c-17.74,17.74-43.36,21-57.11,7.24-8.49-8.5-10.49-21.52-6.61-34.41h-3.91c-4.19,14.09-2,28.29,7.34,37.59,15.13,15.13,43.23,11.57,62.75-8A58.91,58.91,0,0,0,384.81,0Z"/></g><g class="cls-2"><path class="cls-3" d="M439,400a50,50,0,0,0,100,0Z"/><path class="cls-3" d="M524.35,764.14A50,50,0,0,0,439,800H539A49.86,49.86,0,0,0,524.35,764.14Z"/><ellipse class="cls-4" cx="458.52" cy="769.02" rx="5" ry="2.33" transform="translate(-409.48 549.47) rotate(-45)"/><path class="cls-4" d="M472.57,762.52c.92.91.07,3.23-1.88,5.19s-4.27,2.79-5.19,1.88-.06-3.23,1.89-5.18S471.66,761.61,472.57,762.52Z"/><path class="cls-4" d="M459.09,776c.91.91.07,3.23-1.89,5.18s-4.27,2.8-5.18,1.89-.07-3.23,1.88-5.19S458.18,775.1,459.09,776Z"/><path class="cls-3" d="M800,550a50,50,0,0,0,0,100Z"/><path class="cls-3" d="M435.86,635.36A50,50,0,0,0,400,550V650A49.85,49.85,0,0,0,435.86,635.36Z"/><path class="cls-4" d="M434.51,573.06c-.91.91-3.23.07-5.18-1.89s-2.8-4.27-1.89-5.18,3.23-.07,5.19,1.88S435.42,572.15,434.51,573.06Z"/><path class="cls-4" d="M437.48,583.58c-.91.91-3.23.07-5.19-1.89s-2.79-4.27-1.88-5.18,3.23-.07,5.18,1.88S438.39,582.67,437.48,583.58Z"/><path class="cls-4" d="M424,570.09c-.91.91-3.23.07-5.18-1.88s-2.8-4.28-1.89-5.19,3.23-.07,5.19,1.89S424.9,569.18,424,570.09Z"/><path class="cls-5" d="M582.35,486.66a257.3,257.3,0,0,0,50,5.32,257.33,257.33,0,0,0-48-15.07A266,266,0,0,0,539,471.65L519,451.2a.9.9,0,0,0-.63-.27.88.88,0,0,0-.63.26l-3.55,3.55a.88.88,0,0,0-.26.63.86.86,0,0,0,.27.62l20.45,20a266,266,0,0,0,5.26,45.41,257.33,257.33,0,0,0,15.07,48,257.3,257.3,0,0,0-5.32-50,266.53,266.53,0,0,0-11.95-40.41l15.56,15.18a238,238,0,0,0,5.13,40.37,233.67,233.67,0,0,0,13.89,42.88,231,231,0,0,0-5.24-44.59,239.53,239.53,0,0,0-11-35.92L570,510.46a207.7,207.7,0,0,0,17.76,74.19,206.53,206.53,0,0,0-5.1-39.73A217.87,217.87,0,0,0,572.59,513l12.49,12.19a188,188,0,0,0,16.54,66.12,184.77,184.77,0,0,0-4.94-35.42,197.47,197.47,0,0,0-9.23-28.39l11.95,11.66a171.7,171.7,0,0,0,5.7,29.6A175.38,175.38,0,0,0,617,598.92a165.92,165.92,0,0,0-5.85-31.39,180.26,180.26,0,0,0-10.29-27l11.08,10.82a155.45,155.45,0,0,0,6.47,24.43,159.78,159.78,0,0,0,12.27,26.34,149.22,149.22,0,0,0-7-27.64,162.26,162.26,0,0,0-9-20.43l11.48,11.2a139.69,139.69,0,0,0,7.05,22.89,145.71,145.71,0,0,0,12,23.12,134,134,0,0,0-7.35-24.38,149.33,149.33,0,0,0-10.08-20l11.79,11.51a127,127,0,0,0,7.15,18.52,132.74,132.74,0,0,0,12,20,120.27,120.27,0,0,0-7.92-21.32A133.52,133.52,0,0,0,643,581.72l5,4.84a148,148,0,0,0,14.69,17.24A145,145,0,0,0,685,622a145,145,0,0,0-18.2-22.31A149,149,0,0,0,649.56,585l-4.84-5a133.52,133.52,0,0,0,13.87,7.79,120.27,120.27,0,0,0,21.32,7.92,132.74,132.74,0,0,0-20-12,127,127,0,0,0-18.52-7.15L629.85,564.8a149.33,149.33,0,0,0,20,10.08,134,134,0,0,0,24.38,7.35,145.71,145.71,0,0,0-23.12-12,139.4,139.4,0,0,0-22.89-7.05l-11.2-11.48a162.92,162.92,0,0,0,20.43,9,149.22,149.22,0,0,0,27.64,7,158.82,158.82,0,0,0-26.34-12.27,155.45,155.45,0,0,0-24.43-6.47l-13.08-13.4a178.18,178.18,0,0,0,29.16,12.59A166.65,166.65,0,0,0,661.59,555a176.16,176.16,0,0,0-29.75-12.92A168.27,168.27,0,0,0,601,535.21l-10.5-10.76a197.47,197.47,0,0,0,28.39,9.23,184.77,184.77,0,0,0,35.42,4.94,188,188,0,0,0-66.12-16.54L576,509.59a217.87,217.87,0,0,0,31.94,10.08,206.53,206.53,0,0,0,39.73,5.1A207.7,207.7,0,0,0,573.46,507l-13.6-13.94a239.53,239.53,0,0,0,35.92,11,231,231,0,0,0,44.59,5.24,233.67,233.67,0,0,0-42.88-13.89,238,238,0,0,0-40.37-5.13l-15.18-15.56A266.53,266.53,0,0,0,582.35,486.66Z"/><path class="cls-3" d="M506.64,678.25a50,50,0,1,0,70.72-70.71Z"/><ellipse class="cls-6" cx="542" cy="642.9" rx="48.65" ry="27.57" transform="translate(-295.85 571.55) rotate(-45)"/><path class="cls-3" d="M522,622.86c-19.53,19.53-26.39,44.33-15.33,55.39s35.87,4.21,55.39-15.32,26.39-44.32,15.33-55.39S541.49,603.34,522,622.86Zm38.26,38.27c-17.74,17.74-40.35,24-50.4,13.94s-3.8-32.66,13.94-50.4,40.35-24,50.4-13.95S578,643.39,560.23,661.13Z"/><ellipse class="cls-7" cx="541.06" cy="641.95" rx="37.5" ry="20" transform="translate(-295.46 570.61) rotate(-45)"/><path class="cls-8" d="M530.42,671.22c7.82-1.91,16.82-7.17,24.78-15.12s13.22-17,15.12-24.79c-7.82,1.9-16.83,7.17-24.78,15.12S532.32,663.39,530.42,671.22Z"/><path class="cls-3" d="M480.75,581.64a50,50,0,0,0,0,70.71c6.51,6.51,27.61-4,47.14-23.57s30.08-40.63,23.57-47.14A50,50,0,0,0,480.75,581.64Z"/><path class="cls-4" d="M488.45,582.28c.92.91.07,3.23-1.88,5.19s-4.27,2.79-5.19,1.88-.06-3.23,1.89-5.18S487.54,581.37,488.45,582.28Z"/><path class="cls-4" d="M499,579.31c.91.91.07,3.24-1.88,5.19s-4.28,2.8-5.19,1.88-.06-3.23,1.89-5.18S498.06,578.4,499,579.31Z"/><path class="cls-4" d="M485.49,592.8c.91.91.06,3.23-1.89,5.19s-4.27,2.79-5.18,1.88-.07-3.23,1.88-5.18S484.58,591.89,485.49,592.8Z"/><circle class="cls-3" cx="687.5" cy="677" r="50" transform="translate(-276.09 726.86) rotate(-47.52)"/><path class="cls-4" d="M721.51,650.06c-.91.91-3.23.07-5.18-1.89s-2.8-4.27-1.89-5.18,3.23-.07,5.19,1.88S722.42,649.15,721.51,650.06Z"/><ellipse class="cls-4" cx="720.94" cy="657.04" rx="2.33" ry="5" transform="translate(-253.44 702.23) rotate(-45)"/><path class="cls-4" d="M711,647.09c-.91.91-3.23.07-5.18-1.88s-2.8-4.28-1.89-5.19,3.23-.07,5.19,1.89S711.9,646.18,711,647.09Z"/><circle class="cls-3" cx="711.5" cy="523" r="50"/><path class="cls-4" d="M716.5,479.9c0,1.29-2.24,2.33-5,2.33s-5-1-5-2.33,2.24-2.33,5-2.33S716.5,478.61,716.5,479.9Z"/><path class="cls-4" d="M726,485.24c0,1.29-2.24,2.33-5,2.33s-5-1-5-2.33,2.23-2.33,5-2.33S726,484,726,485.24Z"/><path class="cls-4" d="M707,485.24c0,1.29-2.23,2.33-5,2.33s-5-1-5-2.33,2.24-2.33,5-2.33S707,484,707,485.24Z"/><path class="cls-4" d="M486.09,542.85a50,50,0,1,0-70.71-70.71Z"/><ellipse class="cls-6" cx="450.73" cy="507.5" rx="37.7" ry="48.65" transform="translate(-226.84 467.36) rotate(-45)"/><path class="cls-3" d="M423.33,534.9c19.53,19.53,47.62,23.09,62.76,8s11.57-43.22-8-62.75-47.62-23.09-62.75-8S403.81,515.37,423.33,534.9Zm52.34-52.33c17.74,17.74,21,43.35,7.24,57.1s-39.37,10.5-57.11-7.24-21-43.36-7.24-57.1S457.93,464.82,475.67,482.57Z"/><ellipse class="cls-7" cx="449.44" cy="508.79" rx="27.35" ry="37.5" transform="translate(-228.13 466.82) rotate(-45)"/><path class="cls-8" d="M482.13,516c-.82-8.91-5.39-18.6-13.35-26.56s-17.65-12.53-26.55-13.34c.81,8.9,5.38,18.6,13.34,26.55S473.22,515.19,482.13,516Z"/><path class="cls-5" d="M609.83,693.3q-1.2,10.92-1.64,21.83a148.65,148.65,0,0,0-23.12,34,154.76,154.76,0,0,0-14,45.57c.06,0,10.1-18.34,21-41,6.89-14.36,12.58-27.14,15.91-34.64q-.28,9.77,0,19.48a135.69,135.69,0,0,0-18.21,31.36,142.06,142.06,0,0,0-8.55,30.1h3.72c3.06-6.73,7.15-16,11.32-26.35,5.22-13,9.41-24.63,11.86-31.52q.39,8.7,1.26,17.33a124.36,124.36,0,0,0-14.23,28.71,121.53,121.53,0,0,0-3.4,11.83h6.28c1-2.79,2-5.71,3-8.74,3.9-11.72,6.91-22.23,8.67-28.52q.82,7.43,2,14.79A111.12,111.12,0,0,0,603.16,800h5.51c1.89-11,3-19.65,3.25-22.06q1.47,9.16,3.5,18.24c-.41,1-.89,2.31-1.4,3.82h2.25v-.08l0,.08h3.19c-.05-.25-.11-.5-.16-.76l.42.76H623c-1.78-1.84-3.3-3.36-4.44-4.48q-1.49-7.49-2.6-15a114.06,114.06,0,0,0,13,19.49h7.57l-.81-.91c-8.79-9.78-16.95-17.65-20-20.52q-1.14-8.13-1.87-16.31a117,117,0,0,0,16.08,23.51A111.89,111.89,0,0,0,645.2,800h4.87c-3.77-4.78-9.26-11.57-15.66-18.89-8.76-9.94-16.95-18.23-20.88-22.1q-.66-8.57-.85-17.17a122.58,122.58,0,0,0,16.59,27.08,114.51,114.51,0,0,0,27.53,24.36s-9.34-13.42-22.08-29.3c-9.28-11.46-18-21.18-22.09-25.69q-.11-9.62.39-19.25a127.37,127.37,0,0,0,16.74,31.2,119.64,119.64,0,0,0,29.47,28.1c0-.06-9.7-15-23-33.25-9.7-13.23-18.78-24.66-23-29.93q.69-10.75,2.11-21.52a131.76,131.76,0,0,0,16.37,36A124.17,124.17,0,0,0,663,762.1c0-.08-10-16.8-23.5-37.76-10-15.28-19.26-28.75-23.56-34.92q2.05-14.13,5.42-28.2a.93.93,0,0,0-.09-.66.7.7,0,0,0-.51-.34l-4.56-.71a.87.87,0,0,0-.63.17,1,1,0,0,0-.37.6q-3.11,14.34-4.87,28.72a162.83,162.83,0,0,0-29.12,36.52A168,168,0,0,0,562.1,776c.07,0,12.6-20.2,26.76-44.9C597.83,715.33,605.42,701.39,609.83,693.3Z"/><path class="cls-5" d="M620.32,415.31a97.21,97.21,0,0,0-3.58,23.31A106.4,106.4,0,0,0,619.39,465s1.51-11.26,1.88-25.3c.22-9.37-.09-17.68-.31-22.22q2.34,7.85,5.1,15.57a89.81,89.81,0,0,0-.63,19.54,99.51,99.51,0,0,0,4.73,23.23,212.66,212.66,0,0,0-.66-22.62c-.49-6-1.2-11.52-1.8-15.64.81,2.15,1.63,4.3,2.49,6.43a105.32,105.32,0,0,0,7.34,21.41,108.1,108.1,0,0,0,15.93,24.42s-4.31-12.33-11-26.51c-3.89-8.25-7.78-15.4-10.37-20-.79-2.15-1.57-4.3-2.32-6.46A97.38,97.38,0,0,0,639,449.6a90.84,90.84,0,0,0,16.49,15s-5.9-8.61-13.92-18c-5.46-6.38-10.58-11.54-13.33-14.22q-2.57-7.73-4.7-15.57a103.42,103.42,0,0,0,12.66,17.94,94.44,94.44,0,0,0,18.53,16.13s-6.62-9.29-15.61-19.55c-7.07-8-13.63-14.33-16.17-16.7q-1.92-7.26-3.5-14.6h-3.19Q618.12,407.71,620.32,415.31Z"/><path class="cls-5" d="M631.7,417a99.33,99.33,0,0,0,20.39,18s-7.17-10.24-17-21.72c-4.49-5.22-8.78-9.81-12.14-13.28h-3.25A107.52,107.52,0,0,0,631.7,417Z"/><path class="cls-5" d="M655.4,407s-2-2.69-5.33-6.95H645.2A96.86,96.86,0,0,0,655.4,407Z"/><path class="cls-5" d="M609.22,420.33a113.1,113.1,0,0,0,.11,29.65s2.87-12.46,4.87-28c1.1-8.72,1.71-16.64,2.07-21.94H614A105.63,105.63,0,0,0,609.22,420.33Z"/><path class="cls-5" d="M631.81,403.33a103.87,103.87,0,0,0,23.08,19.11S647.14,412,636.49,400h-7.57C629.84,401.11,630.8,402.23,631.81,403.33Z"/><path class="cls-5" d="M579.94,410.91s2.06-4.16,5.12-10.91h-3.72C580.2,406.67,579.94,410.94,579.94,410.91Z"/><path class="cls-5" d="M588.47,425s4.52-10.52,9.68-25h-6.28A129.69,129.69,0,0,0,588.47,425Z"/><path class="cls-5" d="M601.48,407.13a123.18,123.18,0,0,0-1.92,33.35s4-13.9,7.44-31.25c.61-3.2,1.17-6.3,1.67-9.23h-5.51C602.55,402.26,602,404.64,601.48,407.13Z"/><path class="cls-5" d="M506.7,704.83q-10.92-1.2-21.83-1.64a148.65,148.65,0,0,0-34-23.12,154.76,154.76,0,0,0-45.57-14c0,.06,18.34,10.1,41,21,14.36,6.89,27.14,12.58,34.64,15.91q-9.76-.28-19.48,0a135.69,135.69,0,0,0-31.36-18.21,142.06,142.06,0,0,0-30.1-8.55v3.72c6.73,3.06,16,7.15,26.35,11.32,13,5.22,24.63,9.41,31.52,11.86q-8.7.39-17.33,1.26a124.36,124.36,0,0,0-28.71-14.23,121.53,121.53,0,0,0-11.83-3.4v6.28c2.79,1,5.71,2,8.74,3,11.72,3.9,22.23,6.91,28.52,8.67q-7.42.82-14.79,2A111.12,111.12,0,0,0,400,698.16v5.51c11,1.89,19.65,3,22.06,3.25q-9.17,1.47-18.24,3.5c-1-.41-2.31-.89-3.82-1.4v2.25h.08l-.08,0v3.19l.76-.16-.76.42V718c1.84-1.78,3.36-3.3,4.48-4.44q7.49-1.49,15-2.6a114.06,114.06,0,0,0-19.49,13v7.57l.91-.81c9.78-8.79,17.65-16.95,20.52-20q8.13-1.14,16.31-1.87a117,117,0,0,0-23.51,16.08A111.89,111.89,0,0,0,400,740.2v4.87c4.78-3.77,11.57-9.26,18.89-15.66,9.94-8.76,18.23-16.95,22.1-20.88q8.56-.66,17.17-.85a122.58,122.58,0,0,0-27.08,16.59,114.51,114.51,0,0,0-24.36,27.53s13.42-9.34,29.3-22.08c11.46-9.28,21.18-18,25.69-22.09q9.62-.11,19.25.39a127.37,127.37,0,0,0-31.2,16.74,119.64,119.64,0,0,0-28.1,29.47c.06,0,15-9.7,33.25-23,13.23-9.7,24.66-18.78,29.93-23q10.76.69,21.52,2.11a131.76,131.76,0,0,0-36,16.37A124.17,124.17,0,0,0,437.9,758c.08,0,16.8-10,37.76-23.5,15.28-10,28.75-19.26,34.92-23.56q14.13,2.05,28.2,5.42a.93.93,0,0,0,.66-.09.7.7,0,0,0,.34-.51c.24-1.52.48-3,.71-4.56a.87.87,0,0,0-.17-.63,1,1,0,0,0-.6-.37q-14.34-3.11-28.72-4.87a162.83,162.83,0,0,0-36.52-29.12A168,168,0,0,0,424,657.1c0,.07,20.2,12.6,44.9,26.76C484.67,692.83,498.61,700.42,506.7,704.83Z"/><path class="cls-5" d="M784.69,715.32a97.21,97.21,0,0,0-23.31-3.58A106.4,106.4,0,0,0,735,714.39s11.26,1.51,25.3,1.88c9.37.22,17.68-.09,22.22-.31q-7.85,2.34-15.57,5.1a89.81,89.81,0,0,0-19.54-.63,99.51,99.51,0,0,0-23.23,4.73,212.66,212.66,0,0,0,22.62-.66c6-.49,11.52-1.2,15.64-1.8-2.15.81-4.3,1.63-6.43,2.49a105.32,105.32,0,0,0-21.41,7.34,108.1,108.1,0,0,0-24.42,15.93s12.33-4.31,26.51-11c8.25-3.89,15.4-7.78,20-10.37,2.15-.79,4.3-1.57,6.46-2.32A97.38,97.38,0,0,0,750.4,734a90.84,90.84,0,0,0-15,16.49s8.61-5.9,18-13.92c6.38-5.46,11.54-10.58,14.22-13.33q7.73-2.57,15.57-4.7a103.42,103.42,0,0,0-17.94,12.66,94.44,94.44,0,0,0-16.13,18.53s9.29-6.62,19.55-15.61c8-7.07,14.33-13.63,16.7-16.17q7.26-1.92,14.6-3.5v-3.19Q792.29,713.12,784.69,715.32Z"/><path class="cls-5" d="M783,726.7a99.33,99.33,0,0,0-18,20.39s10.24-7.17,21.72-17c5.22-4.49,9.81-8.78,13.28-12.14v-3.25A107.52,107.52,0,0,0,783,726.7Z"/><path class="cls-5" d="M793.05,750.4s2.69-2,7-5.33V740.2A96.86,96.86,0,0,0,793.05,750.4Z"/><path class="cls-5" d="M779.67,704.22a113.1,113.1,0,0,0-29.65.11s12.46,2.87,28,4.87c8.72,1.1,16.64,1.71,21.94,2.07V709A105.63,105.63,0,0,0,779.67,704.22Z"/><path class="cls-5" d="M796.67,726.81a103.87,103.87,0,0,0-19.11,23.08S788,742.14,800,731.49v-7.57C798.89,724.84,797.77,725.8,796.67,726.81Z"/><path class="cls-5" d="M789.09,674.94s4.16,2.06,10.91,5.12v-3.72C793.33,675.2,789.06,674.94,789.09,674.94Z"/><path class="cls-5" d="M775,683.47s10.52,4.52,25,9.68v-6.28A129.69,129.69,0,0,0,775,683.47Z"/><path class="cls-5" d="M792.87,696.48a123.18,123.18,0,0,0-33.35-1.92s13.9,4,31.25,7.44c3.2.61,6.3,1.17,9.23,1.67v-5.51C797.74,697.55,795.36,697,792.87,696.48Z"/><path class="cls-4" d="M776.36,766.88,743.23,800H791A49.8,49.8,0,0,0,776.36,766.88Z"/><path class="cls-6" d="M775.4,767.83c-14.72-14.72-42.06-11.25-61.06,7.74A58.68,58.68,0,0,0,699.48,800h84.16C786.07,787.79,783.48,775.91,775.4,767.83Z"/><path class="cls-7" d="M766.23,774.43C755.55,763.74,735,767,720.37,781.6A47.55,47.55,0,0,0,708.76,800h62.47C774,790.21,772.45,780.65,766.23,774.43Z"/><path class="cls-8" d="M772.4,793.73A40.7,40.7,0,0,0,754.7,800h16.52A35.58,35.58,0,0,0,772.4,793.73Z"/><path class="cls-3" d="M716.07,777.3c17.74-17.74,43.36-21,57.11-7.24,7.51,7.51,9.93,18.56,7.71,29.94h3.92c2.52-12.57-.14-24.81-8.45-33.12-15.14-15.14-43.23-11.57-62.76,8A60.12,60.12,0,0,0,698.31,800h3.91A54.76,54.76,0,0,1,716.07,777.3Z"/><path class="cls-4" d="M743.23,400l-37.58,37.59A50,50,0,0,0,791,400Z"/><path class="cls-6" d="M699.48,400c-4.1,13.73-1.94,27.57,7.12,36.63,14.73,14.72,42.06,11.26,61.06-7.74a57.38,57.38,0,0,0,16-28.89Z"/><path class="cls-7" d="M708.76,400c-3.46,10.44-2.18,20.84,4.44,27.46,10.68,10.68,31.21,7.47,45.85-7.18A46.81,46.81,0,0,0,771.23,400Z"/><path class="cls-8" d="M754.7,400a49.81,49.81,0,0,0-8.86,7.07c-8,7.95-12.53,17.65-13.35,26.56,8.91-.82,18.61-5.39,26.56-13.35A46.69,46.69,0,0,0,771.22,400Z"/><path class="cls-3" d="M780.89,400a53.55,53.55,0,0,1-14.95,27.17c-17.74,17.74-43.36,21-57.11,7.24-8.49-8.5-10.49-21.52-6.61-34.41h-3.91c-4.19,14.09-2,28.29,7.34,37.59,15.13,15.13,43.23,11.57,62.75-8A58.91,58.91,0,0,0,784.81,400Z"/></g><g class="cls-2"><path class="cls-3" d="M39,400a50,50,0,0,0,100,0Z"/><path class="cls-3" d="M124.35,764.14A50,50,0,0,0,39,800H139A49.86,49.86,0,0,0,124.35,764.14Z"/><path class="cls-4" d="M62.06,765.49c.91.91.06,3.23-1.89,5.18s-4.27,2.8-5.18,1.89-.07-3.23,1.88-5.19S61.14,764.58,62.06,765.49Z"/><path class="cls-4" d="M72.57,762.52c.92.91.07,3.23-1.88,5.19s-4.27,2.79-5.19,1.88-.06-3.23,1.89-5.18S71.66,761.61,72.57,762.52Z"/><path class="cls-4" d="M59.09,776c.91.91.07,3.23-1.89,5.18S52.93,784,52,783.08s-.07-3.23,1.88-5.19S58.18,775.1,59.09,776Z"/><path class="cls-3" d="M400,550a50,50,0,0,0,0,100Z"/><path class="cls-3" d="M35.86,635.36a50,50,0,0,0,0-70.71A49.82,49.82,0,0,0,0,550V650A49.85,49.85,0,0,0,35.86,635.36Z"/><ellipse class="cls-4" cx="30.98" cy="569.52" rx="2.33" ry="5" transform="translate(-393.64 188.71) rotate(-45)"/><path class="cls-4" d="M37.48,583.58c-.91.91-3.23.07-5.19-1.89s-2.79-4.27-1.88-5.18,3.23-.07,5.18,1.88S38.39,582.67,37.48,583.58Z"/><path class="cls-4" d="M24,570.09c-.91.91-3.23.07-5.18-1.88S16,563.93,16.92,563s3.23-.07,5.19,1.89S24.9,569.18,24,570.09Z"/><path class="cls-5" d="M182.35,486.66a257.3,257.3,0,0,0,50,5.32,257.33,257.33,0,0,0-48-15.07A266,266,0,0,0,139,471.65L119,451.2a.9.9,0,0,0-.63-.27.88.88,0,0,0-.63.26l-3.55,3.55a.88.88,0,0,0-.26.63.86.86,0,0,0,.27.62l20.45,20a266,266,0,0,0,5.26,45.41,257.33,257.33,0,0,0,15.07,48,257.3,257.3,0,0,0-5.32-50,266.53,266.53,0,0,0-11.95-40.41l15.56,15.18a238,238,0,0,0,5.13,40.37,233.67,233.67,0,0,0,13.89,42.88,231,231,0,0,0-5.24-44.59,239.53,239.53,0,0,0-11-35.92L170,510.46a207.7,207.7,0,0,0,17.76,74.19,206.53,206.53,0,0,0-5.1-39.73A217.87,217.87,0,0,0,172.59,513l12.49,12.19a188,188,0,0,0,16.54,66.12,184.77,184.77,0,0,0-4.94-35.42,197.47,197.47,0,0,0-9.23-28.39l12,11.66a171.7,171.7,0,0,0,5.7,29.6A175.38,175.38,0,0,0,217,598.92a165.92,165.92,0,0,0-5.85-31.39,180.26,180.26,0,0,0-10.29-27l11.08,10.82a155.45,155.45,0,0,0,6.47,24.43,159.78,159.78,0,0,0,12.27,26.34,149.22,149.22,0,0,0-7-27.64,162.26,162.26,0,0,0-9-20.43l11.48,11.2a139.69,139.69,0,0,0,7.05,22.89,145.71,145.71,0,0,0,12,23.12,134,134,0,0,0-7.35-24.38,149.33,149.33,0,0,0-10.08-20l11.79,11.51a127,127,0,0,0,7.15,18.52,132.74,132.74,0,0,0,12,20,120.27,120.27,0,0,0-7.92-21.32A133.52,133.52,0,0,0,243,581.72l5,4.84a148,148,0,0,0,14.69,17.24A145,145,0,0,0,285,622a145,145,0,0,0-18.2-22.31A149,149,0,0,0,249.56,585l-4.84-5a133.52,133.52,0,0,0,13.87,7.79,120.27,120.27,0,0,0,21.32,7.92,132.74,132.74,0,0,0-20-12,127,127,0,0,0-18.52-7.15L229.85,564.8a149.33,149.33,0,0,0,20,10.08,134,134,0,0,0,24.38,7.35,145.71,145.71,0,0,0-23.12-12,139.4,139.4,0,0,0-22.89-7.05l-11.2-11.48a162.92,162.92,0,0,0,20.43,9,149.22,149.22,0,0,0,27.64,7,158.82,158.82,0,0,0-26.34-12.27,155.45,155.45,0,0,0-24.43-6.47l-13.08-13.4a178.18,178.18,0,0,0,29.16,12.59A166.65,166.65,0,0,0,261.59,555a176.16,176.16,0,0,0-29.75-12.92A168.27,168.27,0,0,0,201,535.21l-10.5-10.76a197.47,197.47,0,0,0,28.39,9.23,184.77,184.77,0,0,0,35.42,4.94,188,188,0,0,0-66.12-16.54L176,509.59a217.87,217.87,0,0,0,31.94,10.08,206.53,206.53,0,0,0,39.73,5.1A207.7,207.7,0,0,0,173.46,507l-13.6-13.94a239.53,239.53,0,0,0,35.92,11,231,231,0,0,0,44.59,5.24,233.67,233.67,0,0,0-42.88-13.89,238,238,0,0,0-40.37-5.13l-15.18-15.56A266.53,266.53,0,0,0,182.35,486.66Z"/><path class="cls-3" d="M106.65,678.25a50,50,0,0,0,70.71-70.71Z"/><ellipse class="cls-6" cx="142" cy="642.9" rx="48.65" ry="27.57" transform="translate(-413.01 288.71) rotate(-45)"/><path class="cls-3" d="M122,622.86c-19.53,19.53-26.39,44.33-15.32,55.39s35.86,4.21,55.38-15.32,26.39-44.32,15.33-55.39S141.49,603.34,122,622.86Zm38.26,38.27c-17.74,17.74-40.35,24-50.4,13.94s-3.8-32.66,13.94-50.4,40.35-24,50.4-13.95S178,643.39,160.23,661.13Z"/><ellipse class="cls-7" cx="141.06" cy="641.95" rx="37.5" ry="20" transform="translate(-412.62 287.77) rotate(-45)"/><path class="cls-8" d="M130.42,671.22c7.82-1.91,16.82-7.17,24.78-15.12s13.22-17,15.12-24.79c-7.82,1.9-16.83,7.17-24.78,15.12S132.32,663.39,130.42,671.22Z"/><path class="cls-3" d="M80.75,581.64a50,50,0,0,0,0,70.71c6.51,6.51,27.61-4,47.14-23.57s30.08-40.63,23.57-47.14A50,50,0,0,0,80.75,581.64Z"/><path class="cls-4" d="M88.45,582.28c.92.91.07,3.23-1.88,5.19s-4.27,2.79-5.19,1.88-.06-3.23,1.89-5.18S87.54,581.37,88.45,582.28Z"/><path class="cls-4" d="M99,579.31c.91.91.07,3.24-1.88,5.19s-4.28,2.8-5.19,1.88-.06-3.23,1.89-5.18S98.06,578.4,99,579.31Z"/><path class="cls-4" d="M85.49,592.8c.91.91.06,3.23-1.89,5.19s-4.27,2.79-5.18,1.88-.07-3.23,1.88-5.18S84.58,591.89,85.49,592.8Z"/><circle class="cls-3" cx="287.5" cy="677" r="50" transform="translate(-401.51 419.61) rotate(-46.51)"/><path class="cls-4" d="M321.51,650.06c-.91.91-3.23.07-5.18-1.89s-2.8-4.27-1.89-5.18,3.23-.07,5.19,1.88S322.42,649.15,321.51,650.06Z"/><path class="cls-4" d="M324.48,660.58c-.91.91-3.23.07-5.19-1.89s-2.79-4.27-1.88-5.18,3.23-.07,5.18,1.88S325.39,659.67,324.48,660.58Z"/><path class="cls-4" d="M311,647.09c-.91.91-3.23.07-5.18-1.88s-2.8-4.28-1.89-5.19,3.23-.07,5.19,1.89S311.9,646.18,311,647.09Z"/><circle class="cls-3" cx="311.5" cy="523" r="50"/><path class="cls-4" d="M316.5,479.9c0,1.29-2.24,2.33-5,2.33s-5-1-5-2.33,2.24-2.33,5-2.33S316.5,478.61,316.5,479.9Z"/><path class="cls-4" d="M326,485.24c0,1.29-2.24,2.33-5,2.33s-5-1-5-2.33,2.23-2.33,5-2.33S326,484,326,485.24Z"/><path class="cls-4" d="M307,485.24c0,1.29-2.23,2.33-5,2.33s-5-1-5-2.33,2.24-2.33,5-2.33S307,484,307,485.24Z"/><path class="cls-4" d="M86.09,542.85a50,50,0,0,0-70.71-70.71Z"/><ellipse class="cls-6" cx="50.73" cy="507.5" rx="37.7" ry="48.65" transform="translate(-344 184.52) rotate(-45)"/><path class="cls-3" d="M23.33,534.9c19.53,19.53,47.62,23.09,62.76,8s11.57-43.22-8-62.75-47.62-23.09-62.75-8S3.81,515.37,23.33,534.9Zm52.34-52.33c17.74,17.74,21,43.35,7.24,57.1s-39.37,10.5-57.11-7.24-21-43.36-7.24-57.1S57.93,464.82,75.67,482.57Z"/><ellipse class="cls-7" cx="49.44" cy="508.79" rx="27.35" ry="37.5" transform="translate(-345.29 183.98) rotate(-45)"/><path class="cls-8" d="M82.13,516c-.82-8.91-5.39-18.6-13.35-26.56s-17.65-12.53-26.55-13.34c.81,8.9,5.38,18.6,13.34,26.55S73.22,515.19,82.13,516Z"/><path class="cls-5" d="M209.83,693.3q-1.2,10.92-1.64,21.83a148.65,148.65,0,0,0-23.12,34,154.76,154.76,0,0,0-14,45.57c.06,0,10.1-18.34,21.05-41,6.89-14.36,12.58-27.14,15.91-34.64q-.28,9.77,0,19.48a135.69,135.69,0,0,0-18.21,31.36,142.06,142.06,0,0,0-8.55,30.1h3.72c3.06-6.73,7.15-16,11.32-26.35,5.22-13,9.41-24.63,11.86-31.52q.39,8.7,1.26,17.33a124.36,124.36,0,0,0-14.23,28.71,121.53,121.53,0,0,0-3.4,11.83h6.28c1-2.79,2-5.71,3-8.74,3.9-11.72,6.91-22.23,8.67-28.52q.83,7.43,2,14.79A111.12,111.12,0,0,0,203.16,800h5.51c1.89-11,3-19.65,3.25-22.06q1.47,9.16,3.5,18.24c-.41,1-.89,2.31-1.4,3.82h2.25v-.08l0,.08h3.19c0-.25-.11-.5-.16-.76l.42.76H223c-1.78-1.84-3.3-3.36-4.44-4.48q-1.49-7.49-2.6-15a114.48,114.48,0,0,0,13,19.49h7.58l-.81-.91c-8.79-9.78-17-17.65-20-20.52q-1.14-8.13-1.87-16.31a117,117,0,0,0,16.08,23.51A111.89,111.89,0,0,0,245.2,800h4.87c-3.77-4.78-9.26-11.57-15.66-18.89-8.76-9.94-16.95-18.23-20.88-22.1q-.66-8.57-.85-17.17a122.58,122.58,0,0,0,16.59,27.08,114.51,114.51,0,0,0,27.53,24.36s-9.34-13.42-22.08-29.3c-9.28-11.46-18-21.18-22.09-25.69q-.1-9.62.39-19.25a127.37,127.37,0,0,0,16.74,31.2,119.64,119.64,0,0,0,29.47,28.1c0-.06-9.7-15-23-33.25-9.7-13.23-18.78-24.66-23-29.93q.69-10.75,2.11-21.52a131.76,131.76,0,0,0,16.37,36A124.17,124.17,0,0,0,263,762.1c0-.08-10-16.8-23.5-37.76-10-15.28-19.26-28.75-23.56-34.92q2.06-14.13,5.42-28.2a.93.93,0,0,0-.09-.66.7.7,0,0,0-.51-.34l-4.56-.71a.87.87,0,0,0-.63.17,1,1,0,0,0-.37.6q-3.1,14.34-4.87,28.72a162.83,162.83,0,0,0-29.12,36.52A168,168,0,0,0,162.1,776c.07,0,12.6-20.2,26.76-44.9C197.83,715.33,205.42,701.39,209.83,693.3Z"/><path class="cls-5" d="M220.32,415.31a97.21,97.21,0,0,0-3.58,23.31A106.4,106.4,0,0,0,219.39,465s1.51-11.26,1.88-25.3c.22-9.37-.09-17.68-.31-22.22q2.34,7.85,5.1,15.57a89.81,89.81,0,0,0-.63,19.54,99.51,99.51,0,0,0,4.73,23.23,212.66,212.66,0,0,0-.66-22.62c-.49-6-1.2-11.52-1.8-15.64.81,2.15,1.63,4.3,2.49,6.43a105.32,105.32,0,0,0,7.34,21.41,108.1,108.1,0,0,0,15.93,24.42s-4.31-12.33-11-26.51c-3.89-8.25-7.78-15.4-10.37-20-.79-2.15-1.57-4.3-2.32-6.46A97.38,97.38,0,0,0,239,449.6a90.84,90.84,0,0,0,16.49,15s-5.9-8.61-13.92-18c-5.46-6.38-10.58-11.54-13.33-14.22q-2.57-7.73-4.7-15.57a103.42,103.42,0,0,0,12.66,17.94,94.44,94.44,0,0,0,18.53,16.13s-6.62-9.29-15.61-19.55c-7.07-8-13.63-14.33-16.17-16.7q-1.92-7.26-3.5-14.6h-3.19Q218.12,407.71,220.32,415.31Z"/><path class="cls-5" d="M231.7,417a99.33,99.33,0,0,0,20.39,18s-7.17-10.24-17-21.72c-4.49-5.22-8.78-9.81-12.14-13.28h-3.25A107.52,107.52,0,0,0,231.7,417Z"/><path class="cls-5" d="M255.4,407s-2-2.69-5.33-6.95H245.2A96.86,96.86,0,0,0,255.4,407Z"/><path class="cls-5" d="M209.22,420.33a113.1,113.1,0,0,0,.11,29.65s2.87-12.46,4.87-28c1.1-8.72,1.71-16.64,2.07-21.94H214A105.63,105.63,0,0,0,209.22,420.33Z"/><path class="cls-5" d="M231.81,403.33a103.87,103.87,0,0,0,23.08,19.11S247.14,412,236.49,400h-7.58C229.84,401.11,230.8,402.23,231.81,403.33Z"/><path class="cls-5" d="M179.94,410.91s2.06-4.16,5.12-10.91h-3.72C180.2,406.67,179.94,410.94,179.94,410.91Z"/><path class="cls-5" d="M188.47,425s4.52-10.52,9.68-25h-6.28A129.69,129.69,0,0,0,188.47,425Z"/><path class="cls-5" d="M201.48,407.13a123.18,123.18,0,0,0-1.92,33.35s4-13.9,7.44-31.25c.61-3.2,1.17-6.3,1.67-9.23h-5.51C202.55,402.26,202,404.64,201.48,407.13Z"/><path class="cls-5" d="M106.7,704.83q-10.92-1.2-21.83-1.64a148.65,148.65,0,0,0-34-23.12,154.76,154.76,0,0,0-45.57-14c0,.06,18.34,10.1,41,21,14.36,6.89,27.14,12.58,34.64,15.91q-9.76-.28-19.48,0A135.69,135.69,0,0,0,30.1,684.89,142.06,142.06,0,0,0,0,676.34v3.72c6.73,3.06,16,7.15,26.35,11.32,13,5.22,24.63,9.41,31.52,11.86q-8.7.39-17.33,1.26a124.36,124.36,0,0,0-28.71-14.23A121.53,121.53,0,0,0,0,686.87v6.28c2.79,1,5.71,2,8.75,3,11.71,3.9,22.22,6.91,28.51,8.67q-7.42.82-14.79,2A111.12,111.12,0,0,0,0,698.16v5.51c11,1.89,19.65,3,22.06,3.25q-9.16,1.47-18.24,3.5c-1-.41-2.31-.89-3.82-1.4v2.25H.08l-.08,0v3.19l.76-.16-.76.42V718c1.84-1.78,3.36-3.3,4.48-4.44q7.49-1.49,15-2.6A114.06,114.06,0,0,0,0,723.92v7.57l.91-.81c9.78-8.79,17.65-16.95,20.52-20q8.13-1.14,16.31-1.87a117,117,0,0,0-23.51,16.08A111.89,111.89,0,0,0,0,740.2v4.87c4.78-3.77,11.57-9.26,18.89-15.66,10-8.76,18.23-16.95,22.1-20.88q8.57-.66,17.17-.85a122.58,122.58,0,0,0-27.08,16.59A114.51,114.51,0,0,0,6.72,751.8s13.42-9.34,29.3-22.08c11.46-9.28,21.18-18,25.69-22.09q9.62-.11,19.25.39a127.37,127.37,0,0,0-31.2,16.74,119.64,119.64,0,0,0-28.1,29.47c.06,0,15-9.7,33.25-23,13.23-9.7,24.66-18.78,29.93-23q10.75.69,21.52,2.11a131.76,131.76,0,0,0-36,16.37A124.17,124.17,0,0,0,37.9,758c.08,0,16.8-10,37.76-23.5,15.28-10,28.75-19.26,34.92-23.56q14.13,2.05,28.2,5.42a.93.93,0,0,0,.66-.09.7.7,0,0,0,.34-.51c.24-1.52.48-3,.71-4.56a.87.87,0,0,0-.17-.63,1,1,0,0,0-.6-.37q-14.34-3.11-28.72-4.87a162.83,162.83,0,0,0-36.52-29.12A168,168,0,0,0,24,657.1c0,.07,20.2,12.6,44.9,26.76C84.67,692.83,98.61,700.42,106.7,704.83Z"/><path class="cls-5" d="M384.69,715.32a97.21,97.21,0,0,0-23.31-3.58A106.4,106.4,0,0,0,335,714.39s11.26,1.51,25.3,1.88c9.37.22,17.68-.09,22.22-.31q-7.85,2.34-15.57,5.1a89.81,89.81,0,0,0-19.54-.63,99.51,99.51,0,0,0-23.23,4.73,212.66,212.66,0,0,0,22.62-.66c6-.49,11.52-1.2,15.64-1.8-2.15.81-4.3,1.63-6.43,2.49a105.32,105.32,0,0,0-21.41,7.34,108.1,108.1,0,0,0-24.42,15.93s12.33-4.31,26.51-11c8.25-3.89,15.4-7.78,20-10.37,2.15-.79,4.3-1.57,6.46-2.32A97.38,97.38,0,0,0,350.4,734a90.84,90.84,0,0,0-15,16.49s8.61-5.9,18-13.92c6.38-5.46,11.54-10.58,14.22-13.33q7.73-2.57,15.57-4.7a103.42,103.42,0,0,0-17.94,12.66,94.44,94.44,0,0,0-16.13,18.53s9.29-6.62,19.55-15.61c8-7.07,14.33-13.63,16.7-16.17q7.26-1.92,14.6-3.5v-3.19Q392.29,713.12,384.69,715.32Z"/><path class="cls-5" d="M383,726.7a99.33,99.33,0,0,0-18,20.39s10.24-7.17,21.72-17c5.22-4.49,9.81-8.78,13.28-12.14v-3.25A107.52,107.52,0,0,0,383,726.7Z"/><path class="cls-5" d="M393.05,750.4s2.69-2,6.95-5.33V740.2A96.86,96.86,0,0,0,393.05,750.4Z"/><path class="cls-5" d="M379.67,704.22a113.1,113.1,0,0,0-29.65.11s12.46,2.87,28,4.87c8.72,1.1,16.64,1.71,21.94,2.07V709A105.63,105.63,0,0,0,379.67,704.22Z"/><path class="cls-5" d="M396.67,726.81a103.87,103.87,0,0,0-19.11,23.08S388,742.14,400,731.49v-7.57C398.89,724.84,397.77,725.8,396.67,726.81Z"/><path class="cls-5" d="M389.09,674.94s4.16,2.06,10.91,5.12v-3.72C393.33,675.2,389.06,674.94,389.09,674.94Z"/><path class="cls-5" d="M375,683.47s10.52,4.52,25,9.68v-6.28A129.69,129.69,0,0,0,375,683.47Z"/><path class="cls-5" d="M392.87,696.48a123.18,123.18,0,0,0-33.35-1.92s13.9,4,31.25,7.44c3.2.61,6.3,1.17,9.23,1.67v-5.51C397.74,697.55,395.36,697,392.87,696.48Z"/><path class="cls-4" d="M376.36,766.88,343.23,800H391A49.8,49.8,0,0,0,376.36,766.88Z"/><path class="cls-6" d="M375.4,767.83c-14.72-14.72-42.06-11.25-61.06,7.74A58.68,58.68,0,0,0,299.48,800h84.16C386.07,787.79,383.48,775.91,375.4,767.83Z"/><path class="cls-7" d="M366.23,774.43C355.55,763.74,335,767,320.37,781.6A47.55,47.55,0,0,0,308.76,800h62.47C374,790.21,372.45,780.65,366.23,774.43Z"/><path class="cls-8" d="M372.4,793.73A40.7,40.7,0,0,0,354.7,800h16.52A35.58,35.58,0,0,0,372.4,793.73Z"/><path class="cls-3" d="M316.07,777.3c17.74-17.74,43.36-21,57.11-7.24,7.51,7.51,9.93,18.56,7.71,29.94h3.92c2.52-12.57-.14-24.81-8.45-33.12-15.14-15.14-43.23-11.57-62.76,8A60.12,60.12,0,0,0,298.31,800h3.91A54.76,54.76,0,0,1,316.07,777.3Z"/><path class="cls-4" d="M343.23,400l-37.58,37.59A50,50,0,0,0,391,400Z"/><path class="cls-6" d="M299.48,400c-4.1,13.73-1.94,27.57,7.12,36.63,14.73,14.72,42.06,11.26,61.06-7.74a57.38,57.38,0,0,0,16-28.89Z"/><path class="cls-7" d="M308.76,400c-3.46,10.44-2.18,20.84,4.44,27.46,10.68,10.68,31.21,7.47,45.85-7.18A46.81,46.81,0,0,0,371.23,400Z"/><path class="cls-8" d="M354.7,400a49.81,49.81,0,0,0-8.86,7.07c-8,7.95-12.53,17.65-13.35,26.56,8.91-.82,18.61-5.39,26.56-13.35A46.69,46.69,0,0,0,371.22,400Z"/><path class="cls-3" d="M380.89,400a53.55,53.55,0,0,1-14.95,27.17c-17.74,17.74-43.36,21-57.11,7.24-8.49-8.5-10.49-21.52-6.61-34.41h-3.91c-4.19,14.09-2,28.29,7.34,37.59,15.13,15.13,43.23,11.57,62.75-8A58.91,58.91,0,0,0,384.81,400Z"/></g></svg>